<svg data-v-423bf9ae="" xmlns="http://www.w3.org/2000/svg" viewBox="0 0 782.2188237028302 60" class="font">
	<!--  -->
	<!--  -->
	<defs data-v-423bf9ae="">
		<linearGradient data-v-423bf9ae="" gradientTransform="rotate(25)" id="b12c0add-d371-4550-8dd5-b75632c58155" x1="0%" y1="0%" x2="100%" y2="0%">
			<stop data-v-423bf9ae="" offset="0%" style="stop-color: rgb(23, 119, 117); stop-opacity: 1;">
			</stop>
			<stop data-v-423bf9ae="" offset="100%" style="stop-color: rgb(40, 210, 191); stop-opacity: 1;">
			</stop>
		</linearGradient>
	</defs>
	<g data-v-423bf9ae="" id="98581ccf-b06e-42ad-8f42-b6e0c8a3c3a7" fill="url(#b12c0add-d371-4550-8dd5-b75632c58155)" transform="matrix(4.528301886792453,0,0,4.528301886792453,-2.490560206602197,-15.80377338967233)">
		<path d="M0.81 14L0.81 14Q0.55 14 0.55 13.73L0.55 13.73L0.55 4.47L0.55 4.47Q0.55 4.20 0.81 4.20L0.81 4.20L4.35 4.20L4.35 4.20Q5.49 4.20 6.36 4.59L6.36 4.59L6.36 4.59Q7.24 4.98 7.71 5.70L7.71 5.70L7.71 5.70Q8.19 6.41 8.19 7.35L8.19 7.35L8.19 10.85L8.19 10.85Q8.19 11.79 7.71 12.50L7.71 12.50L7.71 12.50Q7.24 13.22 6.36 13.61L6.36 13.61L6.36 13.61Q5.49 14 4.35 14L4.35 14L0.81 14ZM3.18 11.63L3.18 11.63Q3.18 11.75 3.29 11.75L3.29 11.75L4.45 11.75L4.45 11.75Q4.93 11.75 5.24 11.38L5.24 11.38L5.24 11.38Q5.54 11.00 5.56 10.40L5.56 10.40L5.56 7.80L5.56 7.80Q5.56 7.20 5.25 6.83L5.25 6.83L5.25 6.83Q4.94 6.45 4.44 6.45L4.44 6.45L3.29 6.45L3.29 6.45Q3.18 6.45 3.18 6.57L3.18 6.57L3.18 11.63ZM10.54 6.43L10.54 6.43Q9.87 6.43 9.45 6.02L9.45 6.02L9.45 6.02Q9.03 5.61 9.03 4.96L9.03 4.96L9.03 4.96Q9.03 4.30 9.45 3.89L9.45 3.89L9.45 3.89Q9.87 3.49 10.54 3.49L10.54 3.49L10.54 3.49Q11.23 3.49 11.64 3.89L11.64 3.89L11.64 3.89Q12.05 4.30 12.05 4.96L12.05 4.96L12.05 4.96Q12.05 5.61 11.64 6.02L11.64 6.02L11.64 6.02Q11.23 6.43 10.54 6.43L10.54 6.43ZM9.49 14L9.49 14Q9.23 14 9.23 13.73L9.23 13.73L9.23 6.99L9.23 6.99Q9.23 6.72 9.49 6.72L9.49 6.72L11.59 6.72L11.59 6.72Q11.86 6.72 11.86 6.99L11.86 6.99L11.86 13.73L11.86 13.73Q11.86 14 11.59 14L11.59 14L9.49 14ZM17.30 6.99L17.30 6.99Q17.30 6.72 17.57 6.72L17.57 6.72L19.67 6.72L19.67 6.72Q19.94 6.72 19.94 6.99L19.94 6.99L19.94 13.05L19.94 13.05Q19.94 15.05 18.78 15.90L18.78 15.90L18.78 15.90Q17.63 16.74 15.88 16.74L15.88 16.74L15.88 16.74Q15.26 16.74 14.45 16.62L14.45 16.62L14.45 16.62Q14.34 16.60 14.27 16.52L14.27 16.52L14.27 16.52Q14.21 16.44 14.22 16.32L14.22 16.32L14.31 14.55L14.31 14.55Q14.32 14.32 14.50 14.32L14.50 14.32L14.50 14.32Q14.57 14.32 14.62 14.34L14.62 14.34L14.62 14.34Q15.16 14.46 15.67 14.46L15.67 14.46L15.67 14.46Q16.30 14.46 16.72 14.22L16.72 14.22L16.72 14.22Q17.14 13.99 17.26 13.48L17.26 13.48L17.26 13.45L17.26 13.45Q17.26 13.40 17.20 13.37L17.20 13.37L17.20 13.37Q17.14 13.34 17.08 13.38L17.08 13.38L17.08 13.38Q16.60 13.75 15.82 13.75L15.82 13.75L15.82 13.75Q13.58 13.75 12.96 11.93L12.96 11.93L12.96 11.93Q12.73 11.23 12.73 10.29L12.73 10.29L12.73 10.29Q12.73 9.25 13.02 8.53L13.02 8.53L13.02 8.53Q13.36 7.64 14.08 7.13L14.08 7.13L14.08 7.13Q14.80 6.61 15.74 6.61L15.74 6.61L15.74 6.61Q16.67 6.61 17.18 7.14L17.18 7.14L17.18 7.14Q17.23 7.20 17.27 7.18L17.27 7.18L17.27 7.18Q17.30 7.17 17.30 7.10L17.30 7.10L17.30 6.99ZM17.16 11.24L17.16 11.24Q17.30 10.88 17.30 10.28L17.30 10.28L17.30 10.28Q17.30 9.72 17.15 9.37L17.15 9.37L17.15 9.37Q16.91 8.86 16.35 8.86L16.35 8.86L16.35 8.86Q15.86 8.86 15.61 9.35L15.61 9.35L15.61 9.35Q15.39 9.74 15.39 10.32L15.39 10.32L15.39 10.32Q15.39 10.88 15.57 11.23L15.57 11.23L15.57 11.23Q15.82 11.72 16.38 11.72L16.38 11.72L16.38 11.72Q16.94 11.72 17.16 11.24L17.16 11.24ZM22.29 6.43L22.29 6.43Q21.62 6.43 21.20 6.02L21.20 6.02L21.20 6.02Q20.78 5.61 20.78 4.96L20.78 4.96L20.78 4.96Q20.78 4.30 21.20 3.89L21.20 3.89L21.20 3.89Q21.62 3.49 22.29 3.49L22.29 3.49L22.29 3.49Q22.97 3.49 23.39 3.89L23.39 3.89L23.39 3.89Q23.80 4.30 23.80 4.96L23.80 4.96L23.80 4.96Q23.80 5.61 23.39 6.02L23.39 6.02L23.39 6.02Q22.97 6.43 22.29 6.43L22.29 6.43ZM21.24 14L21.24 14Q20.97 14 20.97 13.73L20.97 13.73L20.97 6.99L20.97 6.99Q20.97 6.72 21.24 6.72L21.24 6.72L23.34 6.72L23.34 6.72Q23.60 6.72 23.60 6.99L23.60 6.99L23.60 13.73L23.60 13.73Q23.60 14 23.34 14L23.34 14L21.24 14ZM29.40 8.55L29.40 8.55Q29.40 8.82 29.13 8.82L29.13 8.82L28.07 8.82L28.07 8.82Q27.96 8.82 27.96 8.93L27.96 8.93L27.96 11.00L27.96 11.00Q27.96 11.70 28.46 11.70L28.46 11.70L28.92 11.70L28.92 11.70Q29.19 11.70 29.19 11.97L29.19 11.97L29.19 13.66L29.19 13.66Q29.19 13.90 28.94 13.93L28.94 13.93L28.94 13.93Q28.39 13.97 27.93 13.97L27.93 13.97L27.93 13.97Q26.66 13.97 26.05 13.58L26.05 13.58L26.05 13.58Q25.45 13.19 25.44 12.10L25.44 12.10L25.44 8.93L25.44 8.93Q25.44 8.82 25.33 8.82L25.33 8.82L24.67 8.82L24.67 8.82Q24.40 8.82 24.40 8.55L24.40 8.55L24.40 6.99L24.40 6.99Q24.40 6.72 24.67 6.72L24.67 6.72L25.33 6.72L25.33 6.72Q25.44 6.72 25.44 6.61L25.44 6.61L25.44 5.03L25.44 5.03Q25.44 4.76 25.70 4.76L25.70 4.76L27.69 4.76L27.69 4.76Q27.96 4.76 27.96 5.03L27.96 5.03L27.96 6.61L27.96 6.61Q27.96 6.72 28.07 6.72L28.07 6.72L29.13 6.72L29.13 6.72Q29.40 6.72 29.40 6.99L29.40 6.99L29.40 8.55ZM33.28 6.61L33.28 6.61Q34.23 6.61 35.03 6.93L35.03 6.93L35.03 6.93Q35.83 7.25 36.29 7.81L36.29 7.81L36.29 7.81Q36.75 8.37 36.75 9.03L36.75 9.03L36.75 13.73L36.75 13.73Q36.75 14 36.48 14L36.48 14L34.38 14L34.38 14Q34.12 14 34.12 13.73L34.12 13.73L34.12 13.48L34.12 13.48Q34.12 13.41 34.08 13.40L34.08 13.40L34.08 13.40Q34.05 13.38 33.99 13.44L33.99 13.44L33.99 13.44Q33.75 13.79 33.33 13.95L33.33 13.95L33.33 13.95Q32.91 14.11 32.28 14.11L32.28 14.11L32.28 14.11Q31.14 14.11 30.48 13.59L30.48 13.59L30.48 13.59Q29.82 13.06 29.82 12.05L29.82 12.05L29.82 12.05Q29.82 10.99 30.57 10.42L30.57 10.42L30.57 10.42Q31.32 9.84 32.75 9.84L32.75 9.84L34.01 9.84L34.01 9.84Q34.12 9.84 34.12 9.73L34.12 9.73L34.12 9.52L34.12 9.52Q34.12 9.23 33.90 9.04L33.90 9.04L33.90 9.04Q33.68 8.86 33.32 8.86L33.32 8.86L33.32 8.86Q33.08 8.86 32.89 8.94L32.89 8.94L32.89 8.94Q32.70 9.02 32.62 9.14L32.62 9.14L32.62 9.14Q32.54 9.25 32.48 9.30L32.48 9.30L32.48 9.30Q32.42 9.34 32.31 9.32L32.31 9.32L30.16 9.04L30.16 9.04Q29.90 9.02 29.92 8.83L29.92 8.83L29.92 8.83Q29.97 8.20 30.43 7.70L30.43 7.70L30.43 7.70Q30.88 7.20 31.63 6.90L31.63 6.90L31.63 6.90Q32.37 6.61 33.28 6.61L33.28 6.61ZM33.10 12.29L33.10 12.29Q33.54 12.29 33.83 12.05L33.83 12.05L33.83 12.05Q34.12 11.82 34.12 11.41L34.12 11.41L34.12 11.27L34.12 11.27Q34.12 11.16 34.01 11.16L34.01 11.16L33.35 11.16L33.35 11.16Q32.47 11.16 32.47 11.73L32.47 11.73L32.47 11.73Q32.47 11.98 32.63 12.14L32.63 12.14L32.63 12.14Q32.79 12.29 33.10 12.29L33.10 12.29ZM37.98 14L37.98 14Q37.72 14 37.72 13.73L37.72 13.73L37.72 4.47L37.72 4.47Q37.72 4.20 37.98 4.20L37.98 4.20L40.08 4.20L40.08 4.20Q40.35 4.20 40.35 4.47L40.35 4.47L40.35 13.73L40.35 13.73Q40.35 14 40.08 14L40.08 14L37.98 14ZM49.15 4.47L49.15 4.47Q49.15 4.20 49.42 4.20L49.42 4.20L51.52 4.20L51.52 4.20Q51.79 4.20 51.79 4.47L51.79 4.47L51.79 13.73L51.79 13.73Q51.79 14 51.52 14L51.52 14L49.42 14L49.42 14Q49.15 14 49.15 13.73L49.15 13.73L49.15 10.28L49.15 10.28Q49.15 10.16 49.04 10.16L49.04 10.16L46.94 10.16L46.94 10.16Q46.83 10.16 46.83 10.28L46.83 10.28L46.83 13.73L46.83 13.73Q46.83 14 46.56 14L46.56 14L44.46 14L44.46 14Q44.20 14 44.20 13.73L44.20 13.73L44.20 4.47L44.20 4.47Q44.20 4.20 44.46 4.20L44.46 4.20L46.56 4.20L46.56 4.20Q46.83 4.20 46.83 4.47L46.83 4.47L46.83 7.80L46.83 7.80Q46.83 7.91 46.94 7.91L46.94 7.91L49.04 7.91L49.04 7.91Q49.15 7.91 49.15 7.80L49.15 7.80L49.15 4.47ZM56.50 11.89L56.50 11.89Q56.92 11.89 57.29 11.78L57.29 11.78L57.29 11.78Q57.65 11.68 57.89 11.49L57.89 11.49L57.89 11.49Q58.00 11.41 58.07 11.41L58.07 11.41L58.07 11.41Q58.17 11.41 58.25 11.52L58.25 11.52L59.21 12.84L59.21 12.84Q59.28 12.95 59.28 13.01L59.28 13.01L59.28 13.01Q59.28 13.10 59.18 13.20L59.18 13.20L59.18 13.20Q58.67 13.66 57.95 13.89L57.95 13.89L57.95 13.89Q57.23 14.11 56.41 14.11L56.41 14.11L56.41 14.11Q55.36 14.11 54.55 13.74L54.55 13.74L54.55 13.74Q53.75 13.37 53.24 12.68L53.24 12.68L53.24 12.68Q52.54 11.70 52.54 10.30L52.54 10.30L52.54 10.30Q52.54 9.70 52.70 9.13L52.70 9.13L52.70 9.13Q53.02 7.99 53.96 7.30L53.96 7.30L53.96 7.30Q54.91 6.61 56.15 6.61L56.15 6.61L56.15 6.61Q57.60 6.61 58.49 7.54L58.49 7.54L58.49 7.54Q59.39 8.47 59.67 10.08L59.67 10.08L59.67 10.08Q59.74 10.42 59.75 10.75L59.75 10.75L59.75 10.75Q59.75 11.02 59.49 11.02L59.49 11.02L55.33 11.02L55.33 11.02Q55.22 11.02 55.23 11.14L55.23 11.14L55.30 11.33L55.30 11.33Q55.57 11.89 56.50 11.89L56.50 11.89ZM56.10 8.86L56.10 8.86Q55.52 8.86 55.30 9.42L55.30 9.42L55.26 9.53L55.24 9.58L55.24 9.58Q55.24 9.66 55.36 9.66L55.36 9.66L56.87 9.66L56.87 9.66Q56.98 9.66 56.98 9.58L56.98 9.58L56.98 9.58Q56.98 9.53 56.96 9.49L56.96 9.49L56.96 9.49Q56.94 9.45 56.92 9.42L56.92 9.42L56.92 9.42Q56.69 8.86 56.10 8.86L56.10 8.86ZM63.62 6.61L63.62 6.61Q64.57 6.61 65.37 6.93L65.37 6.93L65.37 6.93Q66.16 7.25 66.63 7.81L66.63 7.81L66.63 7.81Q67.09 8.37 67.09 9.03L67.09 9.03L67.09 13.73L67.09 13.73Q67.09 14 66.82 14L66.82 14L64.72 14L64.72 14Q64.46 14 64.46 13.73L64.46 13.73L64.46 13.48L64.46 13.48Q64.46 13.41 64.42 13.40L64.42 13.40L64.42 13.40Q64.39 13.38 64.33 13.44L64.33 13.44L64.33 13.44Q64.09 13.79 63.67 13.95L63.67 13.95L63.67 13.95Q63.25 14.11 62.62 14.11L62.62 14.11L62.62 14.11Q61.47 14.11 60.82 13.59L60.82 13.59L60.82 13.59Q60.16 13.06 60.16 12.05L60.16 12.05L60.16 12.05Q60.16 10.99 60.91 10.42L60.91 10.42L60.91 10.42Q61.66 9.84 63.08 9.84L63.08 9.84L64.34 9.84L64.34 9.84Q64.46 9.84 64.46 9.73L64.46 9.73L64.46 9.52L64.46 9.52Q64.46 9.23 64.24 9.04L64.24 9.04L64.24 9.04Q64.02 8.86 63.66 8.86L63.66 8.86L63.66 8.86Q63.42 8.86 63.23 8.94L63.23 8.94L63.23 8.94Q63.04 9.02 62.96 9.14L62.96 9.14L62.96 9.14Q62.87 9.25 62.82 9.30L62.82 9.30L62.82 9.30Q62.76 9.34 62.65 9.32L62.65 9.32L60.49 9.04L60.49 9.04Q60.24 9.02 60.26 8.83L60.26 8.83L60.26 8.83Q60.31 8.20 60.77 7.70L60.77 7.70L60.77 7.70Q61.22 7.20 61.96 6.90L61.96 6.90L61.96 6.90Q62.71 6.61 63.62 6.61L63.62 6.61ZM63.43 12.29L63.43 12.29Q63.88 12.29 64.17 12.05L64.17 12.05L64.17 12.05Q64.46 11.82 64.46 11.41L64.46 11.41L64.46 11.27L64.46 11.27Q64.46 11.16 64.34 11.16L64.34 11.16L63.69 11.16L63.69 11.16Q62.80 11.16 62.80 11.73L62.80 11.73L62.80 11.73Q62.80 11.98 62.97 12.14L62.97 12.14L62.97 12.14Q63.13 12.29 63.43 12.29L63.43 12.29ZM68.32 14L68.32 14Q68.05 14 68.05 13.73L68.05 13.73L68.05 4.47L68.05 4.47Q68.05 4.20 68.32 4.20L68.32 4.20L70.42 4.20L70.42 4.20Q70.69 4.20 70.69 4.47L70.69 4.47L70.69 13.73L70.69 13.73Q70.69 14 70.42 14L70.42 14L68.32 14ZM76.41 8.55L76.41 8.55Q76.41 8.82 76.15 8.82L76.15 8.82L75.08 8.82L75.08 8.82Q74.97 8.82 74.97 8.93L74.97 8.93L74.97 11.00L74.97 11.00Q74.97 11.70 75.47 11.70L75.47 11.70L75.94 11.70L75.94 11.70Q76.20 11.70 76.20 11.97L76.20 11.97L76.20 13.66L76.20 13.66Q76.20 13.90 75.95 13.93L75.95 13.93L75.95 13.93Q75.40 13.97 74.94 13.97L74.94 13.97L74.94 13.97Q73.67 13.97 73.07 13.58L73.07 13.58L73.07 13.58Q72.46 13.19 72.45 12.10L72.45 12.10L72.45 8.93L72.45 8.93Q72.45 8.82 72.34 8.82L72.34 8.82L71.68 8.82L71.68 8.82Q71.41 8.82 71.41 8.55L71.41 8.55L71.41 6.99L71.41 6.99Q71.41 6.72 71.68 6.72L71.68 6.72L72.34 6.72L72.34 6.72Q72.45 6.72 72.45 6.61L72.45 6.61L72.45 5.03L72.45 5.03Q72.45 4.76 72.72 4.76L72.72 4.76L74.70 4.76L74.70 4.76Q74.97 4.76 74.97 5.03L74.97 5.03L74.97 6.61L74.97 6.61Q74.97 6.72 75.08 6.72L75.08 6.72L76.15 6.72L76.15 6.72Q76.41 6.72 76.41 6.99L76.41 6.99L76.41 8.55ZM81.49 6.61L81.49 6.61Q82.19 6.61 82.75 6.92L82.75 6.92L82.75 6.92Q83.31 7.22 83.64 7.82L83.64 7.82L83.64 7.82Q83.97 8.41 83.97 9.23L83.97 9.23L83.97 13.73L83.97 13.73Q83.97 14 83.71 14L83.71 14L81.61 14L81.61 14Q81.34 14 81.34 13.73L81.34 13.73L81.34 9.80L81.34 9.80Q81.34 9.38 81.12 9.12L81.12 9.12L81.12 9.12Q80.91 8.86 80.56 8.86L80.56 8.86L80.56 8.86Q80.19 8.86 79.97 9.12L79.97 9.12L79.97 9.12Q79.76 9.38 79.76 9.80L79.76 9.80L79.76 13.73L79.76 13.73Q79.76 14 79.49 14L79.49 14L77.39 14L77.39 14Q77.13 14 77.13 13.73L77.13 13.73L77.13 4.47L77.13 4.47Q77.13 4.20 77.39 4.20L77.39 4.20L79.49 4.20L79.49 4.20Q79.76 4.20 79.76 4.47L79.76 4.47L79.76 7.35L79.76 7.35Q79.76 7.42 79.79 7.44L79.79 7.44L79.79 7.44Q79.83 7.46 79.87 7.41L79.87 7.41L79.87 7.41Q80.40 6.61 81.49 6.61L81.49 6.61ZM92.95 14L92.95 14Q92.72 14 92.64 13.80L92.64 13.80L91.13 10.32L91.13 10.32Q91.10 10.23 90.99 10.23L90.99 10.23L90.48 10.23L90.48 10.23Q90.37 10.23 90.37 10.35L90.37 10.35L90.37 13.73L90.37 13.73Q90.37 14 90.10 14L90.10 14L88.00 14L88.00 14Q87.74 14 87.74 13.73L87.74 13.73L87.74 4.47L87.74 4.47Q87.74 4.20 88.00 4.20L88.00 4.20L92.19 4.20L92.19 4.20Q93.14 4.20 93.86 4.59L93.86 4.59L93.86 4.59Q94.58 4.98 94.98 5.69L94.98 5.69L94.98 5.69Q95.38 6.40 95.38 7.32L95.38 7.32L95.38 7.32Q95.38 8.23 94.94 8.92L94.94 8.92L94.94 8.92Q94.50 9.60 93.72 9.94L93.72 9.94L93.72 9.94Q93.62 9.98 93.66 10.08L93.66 10.08L95.37 13.69L95.37 13.69Q95.40 13.75 95.40 13.83L95.40 13.83L95.40 13.83Q95.40 14 95.17 14L95.17 14L92.95 14ZM90.48 6.45L90.48 6.45Q90.37 6.45 90.37 6.57L90.37 6.57L90.37 8.12L90.37 8.12Q90.37 8.23 90.48 8.23L90.48 8.23L91.76 8.23L91.76 8.23Q92.20 8.23 92.48 7.99L92.48 7.99L92.48 7.99Q92.76 7.74 92.76 7.35L92.76 7.35L92.76 7.35Q92.76 6.94 92.48 6.70L92.48 6.70L92.48 6.70Q92.20 6.45 91.76 6.45L91.76 6.45L90.48 6.45ZM100.10 11.89L100.10 11.89Q100.52 11.89 100.88 11.78L100.88 11.78L100.88 11.78Q101.25 11.68 101.49 11.49L101.49 11.49L101.49 11.49Q101.60 11.41 101.67 11.41L101.67 11.41L101.67 11.41Q101.77 11.41 101.85 11.52L101.85 11.52L102.80 12.84L102.80 12.84Q102.87 12.95 102.87 13.01L102.87 13.01L102.87 13.01Q102.87 13.10 102.77 13.20L102.77 13.20L102.77 13.20Q102.27 13.66 101.55 13.89L101.55 13.89L101.55 13.89Q100.83 14.11 100.00 14.11L100.00 14.11L100.00 14.11Q98.95 14.11 98.15 13.74L98.15 13.74L98.15 13.74Q97.34 13.37 96.84 12.68L96.84 12.68L96.84 12.68Q96.14 11.70 96.14 10.30L96.14 10.30L96.14 10.30Q96.14 9.70 96.29 9.13L96.29 9.13L96.29 9.13Q96.61 7.99 97.56 7.30L97.56 7.30L97.56 7.30Q98.50 6.61 99.75 6.61L99.75 6.61L99.75 6.61Q101.19 6.61 102.09 7.54L102.09 7.54L102.09 7.54Q102.98 8.47 103.26 10.08L103.26 10.08L103.26 10.08Q103.33 10.42 103.35 10.75L103.35 10.75L103.35 10.75Q103.35 11.02 103.08 11.02L103.08 11.02L98.92 11.02L98.92 11.02Q98.81 11.02 98.83 11.14L98.83 11.14L98.90 11.33L98.90 11.33Q99.16 11.89 100.10 11.89L100.10 11.89ZM99.69 8.86L99.69 8.86Q99.12 8.86 98.90 9.42L98.90 9.42L98.85 9.53L98.84 9.58L98.84 9.58Q98.84 9.66 98.95 9.66L98.95 9.66L100.46 9.66L100.46 9.66Q100.58 9.66 100.58 9.58L100.58 9.58L100.58 9.58Q100.58 9.53 100.55 9.49L100.55 9.49L100.55 9.49Q100.53 9.45 100.52 9.42L100.52 9.42L100.52 9.42Q100.28 8.86 99.69 8.86L99.69 8.86ZM107.53 14.11L107.53 14.11Q106.34 14.11 105.46 13.53L105.46 13.53L105.46 13.53Q104.58 12.95 104.17 11.91L104.17 11.91L104.17 11.91Q103.89 11.20 103.89 10.32L103.89 10.32L103.89 10.32Q103.89 9.45 104.17 8.74L104.17 8.74L104.17 8.74Q104.57 7.74 105.46 7.17L105.46 7.17L105.46 7.17Q106.36 6.61 107.53 6.61L107.53 6.61L107.53 6.61Q108.72 6.61 109.64 7.20L109.64 7.20L109.64 7.20Q110.56 7.80 110.88 8.69L110.88 8.69L110.88 8.69Q110.99 8.99 111.01 9.17L111.01 9.17L111.01 9.20L111.01 9.20Q111.01 9.42 110.77 9.46L110.77 9.46L108.71 9.79L108.71 9.79Q108.70 9.79 108.67 9.79L108.67 9.79L108.67 9.79Q108.65 9.80 108.63 9.79L108.63 9.79L108.63 9.79Q108.44 9.79 108.42 9.62L108.42 9.62L108.36 9.42L108.36 9.42Q108.29 9.18 108.06 9.02L108.06 9.02L108.06 9.02Q107.83 8.86 107.52 8.86L107.52 8.86L107.52 8.86Q106.96 8.86 106.72 9.37L106.72 9.37L106.72 9.37Q106.55 9.72 106.55 10.33L106.55 10.33L106.55 10.33Q106.55 10.91 106.71 11.30L106.71 11.30L106.71 11.30Q106.95 11.86 107.52 11.86L107.52 11.86L107.52 11.86Q108.11 11.86 108.33 11.28L108.33 11.28L108.33 11.28Q108.35 11.24 108.35 11.22L108.35 11.22L108.35 11.22Q108.36 11.20 108.36 11.20L108.36 11.20L108.36 11.20L108.36 11.20Q108.37 11.13 108.47 11.05L108.47 11.05L108.47 11.05Q108.56 10.96 108.67 10.98L108.67 10.98L110.74 11.31L110.74 11.31Q111.01 11.35 110.96 11.61L110.96 11.61L110.96 11.61Q110.94 11.80 110.88 11.98L110.88 11.98L110.88 11.98Q110.52 13.01 109.61 13.56L109.61 13.56L109.61 13.56Q108.71 14.11 107.53 14.11L107.53 14.11ZM115.18 14.11L115.18 14.11Q113.85 14.11 112.93 13.40L112.93 13.40L112.93 13.40Q112.01 12.68 111.72 11.47L111.72 11.47L111.72 11.47Q111.58 10.96 111.58 10.35L111.58 10.35L111.58 10.35Q111.58 9.66 111.75 9.10L111.75 9.10L111.75 9.10Q112.08 7.94 112.99 7.27L112.99 7.27L112.99 7.27Q113.89 6.61 115.19 6.61L115.19 6.61L115.19 6.61Q116.49 6.61 117.38 7.27L117.38 7.27L117.38 7.27Q118.27 7.94 118.61 9.07L118.61 9.07L118.61 9.07Q118.78 9.66 118.78 10.32L118.78 10.32L118.78 10.32Q118.78 10.85 118.66 11.38L118.66 11.38L118.66 11.38Q118.37 12.64 117.45 13.38L117.45 13.38L117.45 13.38Q116.54 14.11 115.18 14.11L115.18 14.11ZM115.18 11.86L115.18 11.86Q115.54 11.86 115.77 11.61L115.77 11.61L115.77 11.61Q115.99 11.37 116.07 10.96L116.07 10.96L116.07 10.96Q116.13 10.70 116.13 10.33L116.13 10.33L116.13 10.33Q116.13 10.01 116.06 9.69L116.06 9.69L116.06 9.69Q115.85 8.86 115.18 8.86L115.18 8.86L115.18 8.86Q114.48 8.86 114.30 9.69L114.30 9.69L114.30 9.69Q114.23 9.93 114.23 10.33L114.23 10.33L114.23 10.33Q114.23 10.70 114.28 10.96L114.28 10.96L114.28 10.96Q114.49 11.86 115.18 11.86L115.18 11.86ZM123.63 6.62L123.63 6.62Q124.07 6.62 124.35 6.78L124.35 6.78L124.35 6.78Q124.53 6.87 124.49 7.11L124.49 7.11L124.15 9.17L124.15 9.17Q124.11 9.41 123.84 9.35L123.84 9.35L123.84 9.35Q123.69 9.31 123.47 9.31L123.47 9.31L123.47 9.31Q123.27 9.31 123.06 9.35L123.06 9.35L123.06 9.35Q122.70 9.42 122.44 9.65L122.44 9.65L122.44 9.65Q122.18 9.88 122.18 10.28L122.18 10.28L122.18 13.73L122.18 13.73Q122.18 14 121.91 14L121.91 14L119.81 14L119.81 14Q119.55 14 119.55 13.73L119.55 13.73L119.55 6.99L119.55 6.99Q119.55 6.72 119.81 6.72L119.81 6.72L121.91 6.72L121.91 6.72Q122.18 6.72 122.18 6.99L122.18 6.99L122.18 7.18L122.18 7.18Q122.18 7.25 122.21 7.28L122.21 7.28L122.21 7.28Q122.25 7.31 122.29 7.25L122.29 7.25L122.29 7.25Q122.81 6.62 123.63 6.62L123.63 6.62ZM129.43 4.47L129.43 4.47Q129.43 4.20 129.70 4.20L129.70 4.20L131.80 4.20L131.80 4.20Q132.06 4.20 132.06 4.47L132.06 4.47L132.06 13.73L132.06 13.73Q132.06 14 131.80 14L131.80 14L129.70 14L129.70 14Q129.43 14 129.43 13.73L129.43 13.73L129.43 13.44L129.43 13.44Q129.43 13.37 129.39 13.36L129.39 13.36L129.39 13.36Q129.35 13.34 129.30 13.41L129.30 13.41L129.30 13.41Q128.76 14.11 127.72 14.11L127.72 14.11L127.72 14.11Q126.78 14.11 126.03 13.52L126.03 13.52L126.03 13.52Q125.29 12.92 124.98 11.90L124.98 11.90L124.98 11.90Q124.77 11.20 124.77 10.33L124.77 10.33L124.77 10.33Q124.77 9.32 125.08 8.54L125.08 8.54L125.08 8.54Q125.41 7.69 126.13 7.15L126.13 7.15L126.13 7.15Q126.84 6.61 127.83 6.61L127.83 6.61L127.83 6.61Q128.83 6.61 129.30 7.20L129.30 7.20L129.30 7.20Q129.36 7.25 129.39 7.23L129.39 7.23L129.39 7.23Q129.43 7.21 129.43 7.14L129.43 7.14L129.43 4.47ZM129.22 11.38L129.22 11.38Q129.43 10.98 129.43 10.37L129.43 10.37L129.43 10.37Q129.43 9.70 129.21 9.30L129.21 9.30L129.21 9.30Q128.95 8.86 128.48 8.86L128.48 8.86L128.48 8.86Q127.97 8.86 127.74 9.32L127.74 9.32L127.74 9.32Q127.53 9.72 127.53 10.37L127.53 10.37L127.53 10.37Q127.53 10.99 127.74 11.40L127.74 11.40L127.74 11.40Q127.99 11.86 128.48 11.86L128.48 11.86L128.48 11.86Q128.97 11.86 129.22 11.38L129.22 11.38ZM140.18 4.20L140.18 4.20Q141.18 4.20 141.93 4.60L141.93 4.60L141.93 4.60Q142.69 5.00 143.10 5.73L143.10 5.73L143.10 5.73Q143.51 6.47 143.51 7.42L143.51 7.42L143.51 7.42Q143.51 8.36 143.08 9.07L143.08 9.07L143.08 9.07Q142.65 9.79 141.86 10.18L141.86 10.18L141.86 10.18Q141.08 10.57 140.06 10.57L140.06 10.57L138.61 10.57L138.61 10.57Q138.50 10.57 138.50 10.68L138.50 10.68L138.50 13.73L138.50 13.73Q138.50 14 138.24 14L138.24 14L136.14 14L136.14 14Q135.87 14 135.87 13.73L135.87 13.73L135.87 4.47L135.87 4.47Q135.87 4.20 136.14 4.20L136.14 4.20L140.18 4.20ZM139.75 8.47L139.75 8.47Q140.27 8.47 140.58 8.20L140.58 8.20L140.58 8.20Q140.90 7.92 140.90 7.48L140.90 7.48L140.90 7.48Q140.90 7.01 140.58 6.73L140.58 6.73L140.58 6.73Q140.27 6.45 139.75 6.45L139.75 6.45L138.61 6.45L138.61 6.45Q138.50 6.45 138.50 6.57L138.50 6.57L138.50 8.36L138.50 8.36Q138.50 8.47 138.61 8.47L138.61 8.47L139.75 8.47ZM147.67 14.11L147.67 14.11Q146.34 14.11 145.42 13.40L145.42 13.40L145.42 13.40Q144.51 12.68 144.21 11.47L144.21 11.47L144.21 11.47Q144.07 10.96 144.07 10.35L144.07 10.35L144.07 10.35Q144.07 9.66 144.24 9.10L144.24 9.10L144.24 9.10Q144.58 7.94 145.48 7.27L145.48 7.27L145.48 7.27Q146.38 6.61 147.69 6.61L147.69 6.61L147.69 6.61Q148.99 6.61 149.88 7.27L149.88 7.27L149.88 7.27Q150.77 7.94 151.10 9.07L151.10 9.07L151.10 9.07Q151.27 9.66 151.27 10.32L151.27 10.32L151.27 10.32Q151.27 10.85 151.16 11.38L151.16 11.38L151.16 11.38Q150.86 12.64 149.95 13.38L149.95 13.38L149.95 13.38Q149.03 14.11 147.67 14.11L147.67 14.11ZM147.67 11.86L147.67 11.86Q148.04 11.86 148.26 11.61L148.26 11.61L148.26 11.61Q148.48 11.37 148.57 10.96L148.57 10.96L148.57 10.96Q148.62 10.70 148.62 10.33L148.62 10.33L148.62 10.33Q148.62 10.01 148.55 9.69L148.55 9.69L148.55 9.69Q148.34 8.86 147.67 8.86L147.67 8.86L147.67 8.86Q146.97 8.86 146.79 9.69L146.79 9.69L146.79 9.69Q146.72 9.93 146.72 10.33L146.72 10.33L146.72 10.33Q146.72 10.70 146.78 10.96L146.78 10.96L146.78 10.96Q146.99 11.86 147.67 11.86L147.67 11.86ZM156.13 6.62L156.13 6.62Q156.56 6.62 156.84 6.78L156.84 6.78L156.84 6.78Q157.02 6.87 156.98 7.11L156.98 7.11L156.65 9.17L156.65 9.17Q156.60 9.41 156.34 9.35L156.34 9.35L156.34 9.35Q156.18 9.31 155.96 9.31L155.96 9.31L155.96 9.31Q155.76 9.31 155.55 9.35L155.55 9.35L155.55 9.35Q155.19 9.42 154.93 9.65L154.93 9.65L154.93 9.65Q154.67 9.88 154.67 10.28L154.67 10.28L154.67 13.73L154.67 13.73Q154.67 14 154.41 14L154.41 14L152.31 14L152.31 14Q152.04 14 152.04 13.73L152.04 13.73L152.04 6.99L152.04 6.99Q152.04 6.72 152.31 6.72L152.31 6.72L154.41 6.72L154.41 6.72Q154.67 6.72 154.67 6.99L154.67 6.99L154.67 7.18L154.67 7.18Q154.67 7.25 154.71 7.28L154.71 7.28L154.71 7.28Q154.74 7.31 154.78 7.25L154.78 7.25L154.78 7.25Q155.30 6.62 156.13 6.62L156.13 6.62ZM162.34 8.55L162.34 8.55Q162.34 8.82 162.08 8.82L162.08 8.82L161.01 8.82L161.01 8.82Q160.90 8.82 160.90 8.93L160.90 8.93L160.90 11.00L160.90 11.00Q160.90 11.70 161.41 11.70L161.41 11.70L161.87 11.70L161.87 11.70Q162.13 11.70 162.13 11.97L162.13 11.97L162.13 13.66L162.13 13.66Q162.13 13.90 161.88 13.93L161.88 13.93L161.88 13.93Q161.34 13.97 160.87 13.97L160.87 13.97L160.87 13.97Q159.60 13.97 159.00 13.58L159.00 13.58L159.00 13.58Q158.40 13.19 158.38 12.10L158.38 12.10L158.38 8.93L158.38 8.93Q158.38 8.82 158.27 8.82L158.27 8.82L157.61 8.82L157.61 8.82Q157.35 8.82 157.35 8.55L157.35 8.55L157.35 6.99L157.35 6.99Q157.35 6.72 157.61 6.72L157.61 6.72L158.27 6.72L158.27 6.72Q158.38 6.72 158.38 6.61L158.38 6.61L158.38 5.03L158.38 5.03Q158.38 4.76 158.65 4.76L158.65 4.76L160.64 4.76L160.64 4.76Q160.90 4.76 160.90 5.03L160.90 5.03L160.90 6.61L160.90 6.61Q160.90 6.72 161.01 6.72L161.01 6.72L162.08 6.72L162.08 6.72Q162.34 6.72 162.34 6.99L162.34 6.99L162.34 8.55ZM166.22 6.61L166.22 6.61Q167.17 6.61 167.97 6.93L167.97 6.93L167.97 6.93Q168.77 7.25 169.23 7.81L169.23 7.81L169.23 7.81Q169.69 8.37 169.69 9.03L169.69 9.03L169.69 13.73L169.69 13.73Q169.69 14 169.43 14L169.43 14L167.33 14L167.33 14Q167.06 14 167.06 13.73L167.06 13.73L167.06 13.48L167.06 13.48Q167.06 13.41 167.03 13.40L167.03 13.40L167.03 13.40Q166.99 13.38 166.94 13.44L166.94 13.44L166.94 13.44Q166.70 13.79 166.28 13.95L166.28 13.95L166.28 13.95Q165.86 14.11 165.23 14.11L165.23 14.11L165.23 14.11Q164.08 14.11 163.42 13.59L163.42 13.59L163.42 13.59Q162.76 13.06 162.76 12.05L162.76 12.05L162.76 12.05Q162.76 10.99 163.51 10.42L163.51 10.42L163.51 10.42Q164.26 9.84 165.69 9.84L165.69 9.84L166.95 9.84L166.95 9.84Q167.06 9.84 167.06 9.73L167.06 9.73L167.06 9.52L167.06 9.52Q167.06 9.23 166.84 9.04L166.84 9.04L166.84 9.04Q166.63 8.86 166.26 8.86L166.26 8.86L166.26 8.86Q166.03 8.86 165.84 8.94L165.84 8.94L165.84 8.94Q165.65 9.02 165.56 9.14L165.56 9.14L165.56 9.14Q165.48 9.25 165.42 9.30L165.42 9.30L165.42 9.30Q165.37 9.34 165.26 9.32L165.26 9.32L163.10 9.04L163.10 9.04Q162.85 9.02 162.86 8.83L162.86 8.83L162.86 8.83Q162.92 8.20 163.37 7.70L163.37 7.70L163.37 7.70Q163.83 7.20 164.57 6.90L164.57 6.90L164.57 6.90Q165.31 6.61 166.22 6.61L166.22 6.61ZM166.04 12.29L166.04 12.29Q166.49 12.29 166.78 12.05L166.78 12.05L166.78 12.05Q167.06 11.82 167.06 11.41L167.06 11.41L167.06 11.27L167.06 11.27Q167.06 11.16 166.95 11.16L166.95 11.16L166.29 11.16L166.29 11.16Q165.41 11.16 165.41 11.73L165.41 11.73L165.41 11.73Q165.41 11.98 165.57 12.14L165.57 12.14L165.57 12.14Q165.73 12.29 166.04 12.29L166.04 12.29ZM170.93 14L170.93 14Q170.66 14 170.66 13.73L170.66 13.73L170.66 4.47L170.66 4.47Q170.66 4.20 170.93 4.20L170.93 4.20L173.03 4.20L173.03 4.20Q173.29 4.20 173.29 4.47L173.29 4.47L173.29 13.73L173.29 13.73Q173.29 14 173.03 14L173.03 14L170.93 14Z">
		</path>
	</g>
	<!--  -->
	<!--  -->
</svg>
