<?xml version="1.0"?>
<svg xmlns="http://www.w3.org/2000/svg" xmlns:xlink="http://www.w3.org/1999/xlink" xmlns:svgjs="http://svgjs.com/svgjs" version="1.1" width="512" height="512" x="0" y="0" viewBox="0 0 511.994 511.994" style="enable-background:new 0 0 512 512" xml:space="preserve" class=""><g><g xmlns="http://www.w3.org/2000/svg"><path d="m350.842 359.173h-189.689c-57.802 0-104.828 47.026-104.828 104.828v47.98h399.345v-47.98c-.001-57.802-47.026-104.828-104.828-104.828z" fill="#beebfa" data-original="#beebfa" style="" class=""/><path d="m455.669 464.001c0-57.802-47.025-104.828-104.828-104.828h-94.823v152.809h199.651z" fill="#7ed8f6" data-original="#7ed8f6" style=""/><path d="m197.036 313.284v65.831l58.975 79.802 58.947-79.805v-65.828z" fill="#ffddce" data-original="#ffddce" style="" class=""/><path d="m314.958 379.112v-65.828h-58.939v145.624z" fill="#ffcbbc" data-original="#ffcbbc" style=""/><path d="m219.328 261.063 17.488-7.33c12.19-5.109 26.173-5.109 38.364 0l17.488 7.33c21.163 8.871 43.529 13.368 66.477 13.368h11.242c7.966-17.832 12.194-37.278 12.194-57.002v-91.544h-253.167v91.544c0 19.725 4.228 39.17 12.194 57.002h11.242c22.947 0 45.314-4.497 66.478-13.368z" fill="#ffddce" data-original="#ffddce" style="" class=""/><path d="m256.019 125.884v124.018c6.536.003 13.072 1.28 19.161 3.832l17.488 7.33c21.163 8.871 43.529 13.368 66.477 13.368h11.242c7.966-17.832 12.194-37.278 12.194-57.002v-91.544h-126.562z" fill="#ffcbbc" data-original="#ffcbbc" style=""/><g><path d="m190.994 176.507h30v30.002h-30z" fill="#5d5655" data-original="#5d5655" style=""/></g><g><path d="m291 176.507h30v30.002h-30z" fill="#5d5655" data-original="#5d5655" style=""/></g><path d="m129.414 0h253.166v145.884h-253.166z" fill="#beebfa" data-original="#beebfa" style="" class=""/><g fill="#7ed8f6"><path d="m256.019 0h126.562v145.884h-126.562z" fill="#7ed8f6" data-original="#7ed8f6" style=""/><path d="m284.766 62.942h-13.769v-13.769h-30v13.769h-13.769v30h13.769v13.769h30v-13.769h13.769z" fill="#7ed8f6" data-original="#7ed8f6" style=""/><path d="m352.267 359.191c-.475-.006-.949-.018-1.425-.018h-35.883l-58.94 79.829-58.983-79.829h-35.883c-.475 0-.946.012-1.419.018l81.275 109.977v42.814h30v-42.78z" fill="#7ed8f6" data-original="#7ed8f6" style=""/></g><path d="m359.144 244.431c-18.944 0-37.409-3.713-54.88-11.036l-17.488-7.33c-19.561-8.198-41.998-8.198-61.557 0l-17.488 7.33c-17.472 7.323-35.937 11.036-54.881 11.036h-20.783c4.427 22.379 14.297 43.54 28.855 61.358 20.318 24.868 48.839 42.088 80.307 48.489l14.768 3.003 14.768-3.003c31.468-6.401 59.989-23.621 80.307-48.489 14.558-17.818 24.428-38.979 28.855-61.358z" fill="#e1ebf0" data-original="#e1ebf0" style="" class=""/><g><path d="m291 176.507h30v30.002h-30z" fill="#3b3735" data-original="#3b3735" style=""/></g><path d="m351.072 305.789c14.558-17.818 24.428-38.979 28.855-61.358h-20.783c-18.944 0-37.409-3.713-54.88-11.036l-17.488-7.33c-9.774-4.096-20.265-6.145-30.757-6.148v137.36l14.746-2.999c31.468-6.401 59.988-23.621 80.307-48.489z" fill="#bed9dd" data-original="#bed9dd" style=""/><path d="m270.997 92.942h13.769v-30h-13.769v-13.769h-14.978v57.538h14.978z" fill="#2fc0f0" data-original="#2fc0f0" style=""/><path d="m350.842 359.173h-35.883l-58.94 79.829v72.98h14.99v-42.78l81.259-110.01c-.476-.007-.95-.019-1.426-.019z" fill="#2fc0f0" data-original="#2fc0f0" style=""/><path d="m382.276 439.978v-75.987c-9.493-2.99-19.565-4.658-30-4.799v80.786z" fill="#0b799d" data-original="#0b799d" style=""/><path d="m382.276 439.978v-75.987c-9.493-2.99-19.565-4.658-30-4.799v80.786z" fill="#07485e" data-original="#07485e" style=""/><path d="m159.726 443.271v-84.079c-10.435.14-20.507 1.807-30 4.797v79.282z" fill="#0b799d" data-original="#0b799d" style=""/><g><path d="m417.027 511.994h-30v-37.266c0-10.89-8.86-19.75-19.75-19.75s-19.75 8.86-19.75 19.75v37.266h-30v-37.266c0-27.432 22.318-49.75 49.75-49.75s49.75 22.318 49.75 49.75z" fill="#faf0f0" data-original="#faf0f0" style=""/></g><g><path d="m417.027 511.994h-30v-37.266c0-10.89-8.86-19.75-19.75-19.75s-19.75 8.86-19.75 19.75v37.266h-30v-37.266c0-27.432 22.318-49.75 49.75-49.75s49.75 22.318 49.75 49.75z" fill="#efe2dd" data-original="#efe2dd" style=""/></g><path d="m144.726 511.982c-23.08 0-41.856-18.776-41.856-41.856 0-23.079 18.776-41.855 41.856-41.855 23.079 0 41.855 18.776 41.855 41.855 0 23.08-18.776 41.856-41.855 41.856z" fill="#faf0f0" data-original="#faf0f0" style=""/></g></g></svg>
