<?xml version="1.0"?>
<svg xmlns="http://www.w3.org/2000/svg" xmlns:xlink="http://www.w3.org/1999/xlink" xmlns:svgjs="http://svgjs.com/svgjs" version="1.1" width="512" height="512" x="0" y="0" viewBox="0 0 511.9 511.9" style="enable-background:new 0 0 512 512" xml:space="preserve" class=""><g><g xmlns="http://www.w3.org/2000/svg" id="XMLID_14_"><path id="XMLID_994_" d="m173.843 0v194.236l168.883 317.664h167.736v-511.9z" fill="#e6eeff" data-original="#e6eeff" style=""/><path id="XMLID_71_" d="m342.152 0v510.822l.574 1.078h167.736v-511.9z" fill="#d2d6f8" data-original="#d2d6f8" style="" class=""/><path id="XMLID_986_" d="m236.056 62.443h84.732v84.732h-84.732z" fill="#3399ff" data-original="#3399ff" style="" class=""/><g fill="#37f"><path id="XMLID_982_" d="m342.152 205.907h92.831v31.093h-92.831z" fill="#3377ff" data-original="#3377ff" style=""/><path id="XMLID_981_" d="m342.152 271.497h92.831v31.093h-92.831z" fill="#3377ff" data-original="#3377ff" style=""/><path id="XMLID_980_" d="m342.152 337.087h92.831v31.093h-92.831z" fill="#3377ff" data-original="#3377ff" style=""/></g><path id="XMLID_1237_" d="m15.444 271.02.004 200.643c0 22.187 22.387 40.237 49.904 40.237s49.905-18.05 49.905-40.237l-.004-200.643-49.904-30.91z" fill="#c7e62e" data-original="#c7e62e" style="" class=""/><path id="XMLID_1333_" d="m115.254 271.02-49.901-30.908v271.788c27.517 0 49.905-18.05 49.905-40.237z" fill="#5fcc29" data-original="#5fcc29" style="" class=""/><path id="XMLID_1232_" d="m15.444 185.182h99.81v85.838h-99.81z" fill="#99eeff" data-original="#99eeff" style=""/><path id="XMLID_954_" d="m1.439 190.36h127.828" fill="#d1e9ff" data-original="#d1e9ff" style=""/><path id="XMLID_957_" d="m1.439 174.813h127.828v31.093h-127.828z" fill="#81d7f4" data-original="#81d7f4" style=""/><path id="XMLID_1203_" d="m304.364 397.725-80.47 10.365-86.067-10.365 36.017-53.449v-159.094h94.503v159.094z" fill="#99eeff" data-original="#99eeff" style=""/><path id="XMLID_1201_" d="m381.288 511.9h-320.385l76.924-114.175h166.537z" fill="#ff7d43" data-original="#ff7d43" style="" class=""/><path id="XMLID_1281_" d="m160.29 174.813h121.609v31.093h-121.609z" fill="#81d7f4" data-original="#81d7f4" style=""/><path id="XMLID_1296_" d="m65.353 185.182h49.901v85.838h-49.901z" fill="#81d7f4" data-original="#81d7f4" style=""/><path id="XMLID_1321_" d="m65.353 174.813h63.914v31.093h-63.914z" fill="#64c0ee" data-original="#64c0ee" style=""/><path id="XMLID_1393_" d="m268.347 344.276v-159.094h-47.251v222.571l2.798.337 80.47-10.365z" fill="#81d7f4" data-original="#81d7f4" style=""/><path id="XMLID_1395_" d="m221.096 174.813h60.804v31.093h-60.804z" fill="#64c0ee" data-original="#64c0ee" style=""/><path id="XMLID_1403_" d="m221.096 511.9h160.192l-76.924-114.175h-83.268z" fill="#ff4d4d" data-original="#ff4d4d" style="" class=""/></g></g></svg>
