<?xml version="1.0"?>
<svg xmlns="http://www.w3.org/2000/svg" xmlns:xlink="http://www.w3.org/1999/xlink" xmlns:svgjs="http://svgjs.com/svgjs" version="1.1" width="512" height="512" x="0" y="0" viewBox="0 0 511.983 511.983" style="enable-background:new 0 0 512 512" xml:space="preserve" class=""><g><g xmlns="http://www.w3.org/2000/svg"><path d="m350.836 359.175h-189.689c-57.802 0-104.828 47.025-104.828 104.828v47.98h399.345v-47.98c0-57.803-47.026-104.828-104.828-104.828z" fill="#ff7c48" data-original="#ff7c48" style=""/><path d="m455.664 464.002c0-57.802-47.025-104.828-104.828-104.828h-94.845v152.808h199.672v-47.98z" fill="#ff415b" data-original="#ff415b" style=""/><path d="m197.03 313.285v70.807c0 23.423 12.398 45.588 32.357 57.848l26.604 16.34 26.604-16.34c19.958-12.259 32.357-34.425 32.357-57.848v-70.806z" fill="#ffddce" data-original="#ffddce" style=""/><path d="m282.596 441.939c19.958-12.259 32.357-34.425 32.357-57.848v-70.806h-58.961v144.995z" fill="#ffcbbc" data-original="#ffcbbc" style="" class=""/><path d="m219.322 261.064 17.488-7.33c12.19-5.109 26.173-5.108 38.364 0l17.488 7.33c21.163 8.871 43.529 13.368 66.477 13.368h11.242c7.966-17.833 12.194-37.278 12.194-57.003v-110.096h-253.167v110.097c0 19.725 4.228 39.17 12.194 57.003h11.242c22.948 0 45.314-4.498 66.478-13.369z" fill="#ffddce" data-original="#ffddce" style=""/><path d="m275.174 253.734 17.488 7.33c21.163 8.871 43.529 13.368 66.477 13.368h11.242c7.966-17.833 12.194-37.278 12.194-57.003v-110.096h-126.584v142.569c6.544.001 13.087 1.278 19.183 3.832z" fill="#ffcbbc" data-original="#ffcbbc" style="" class=""/><path d="m359.138 244.433c-18.944 0-37.409-3.713-54.88-11.036l-17.488-7.33c-19.56-8.198-41.997-8.199-61.557 0l-17.488 7.33c-17.472 7.323-35.937 11.036-54.881 11.036h-20.783c4.427 22.378 14.297 43.54 28.855 61.357 20.318 24.868 48.839 42.088 80.307 48.489l14.768 3.003 14.768-3.004c31.468-6.4 59.989-23.621 80.307-48.488 14.558-17.817 24.428-38.979 28.855-61.357z" fill="#e1ebf0" data-original="#e1ebf0" style="" class=""/><g><path d="m190.989 176.509h30v30.002h-30z" fill="#5d5655" data-original="#5d5655" style=""/></g><g><path d="m290.995 176.509h30v30.002h-30z" fill="#5d5655" data-original="#5d5655" style=""/></g><path d="m325.563 27.012h-164.129c-14.895 0-27.012-12.117-27.012-27.012h-30v69.929c0 37.167 30.238 67.405 67.405 67.405h210.748v-53.31c-.001-31.437-25.576-57.012-57.012-57.012z" fill="#5d5655" data-original="#5d5655" style=""/><g><path d="m290.995 176.509h30v30.002h-30z" fill="#3b3735" data-original="#3b3735" style=""/></g><path d="m382.574 84.024c0-31.437-25.575-57.012-57.012-57.012h-69.571v110.322h126.583z" fill="#3b3735" data-original="#3b3735" style=""/><path d="m359.138 244.433c-18.944 0-37.409-3.713-54.88-11.036l-17.488-7.33c-9.78-4.099-20.279-6.149-30.779-6.149v137.365l14.768-3.004c31.468-6.4 59.989-23.621 80.307-48.488 14.558-17.817 24.428-38.979 28.855-61.357h-20.783z" fill="#bed9dd" data-original="#bed9dd" style=""/></g></g></svg>
