<svg id="SvgjsSvg1180" width="360" height="360" xmlns="http://www.w3.org/2000/svg" version="1.1" xmlns:xlink="http://www.w3.org/1999/xlink" xmlns:svgjs="http://svgjs.com/svgjs">
	<defs id="SvgjsDefs1181">
	</defs>
	<g id="SvgjsG1182" transform="matrix(0.9167,0,0,0.9167,15.013143202745908,14.99406418838501)">
		<svg xmlns="http://www.w3.org/2000/svg" viewBox="0 0 603.48 474.001" width="360" height="360">
			<g data-name="Layer 2" fill="#000000" class="color000 svgShape">
				<g data-name="Layer 1" fill="#000000" class="color000 svgShape">
					<path fill="#dae0e0" d="M327.01966,7.1397c61.75678,22.29614,93.24666-8.54531,150.33741,8.87507,62.1852,18.97492,89.99275,75.45135,92.6123,80.98791,32.1428,67.93383,19.96233,143.51615-36.05978,176.37121-31.09222,18.23463-59.52678,15.38487-152.67319,40.99893-70.47084,19.3785-106.49759,48.29411-121.27279,53.93087-75.30211,28.72786-152.508-2.09392-205.359-52.36294C39.8956,301.95029-30.8177,233.95546,27.9898,151.75784c18.21111-25.45438,17.84284-13.01358,92.26379-81.46608C198.63642-1.80495,282.42762-8.95953,327.01966,7.1397Z" class="colordae0e0 svgShape">
					</path>
					<path fill="#104f54" d="M560.56118,239.31308l-1.5071,174.82319s-8.6658,7.91226-21.66451,0l-6.362-144.68126-6.07155-.37678-7.03863,145.058s-11.09839,7.91226-21.66452,0l1.387-174.82319Z" class="color104f54 svgShape">
					</path>
					<polygon fill="#0a3e3f" points="546.973 270.729 547.013 272.229 546.963 272.229 546.973 270.729" class="color0a3e3f svgShape">
					</polygon>
					<polygon fill="#0a3e3f" points="547.093 275.216 547.161 278.203 546.935 278.205 546.943 275.217 547.093 275.216" class="color0a3e3f svgShape">
					</polygon>
					<polygon fill="#0a3e3f" points="547.229 281.19 547.296 284.177 546.92 284.181 546.928 281.193 547.229 281.19" class="color0a3e3f svgShape">
					</polygon>
					<polygon fill="#0a3e3f" points="547.363 287.164 547.426 290.151 546.911 290.156 546.913 287.168 547.363 287.164" class="color0a3e3f svgShape">
					</polygon>
					<polygon fill="#0a3e3f" points="547.478 293.138 547.531 296.125 546.925 296.131 546.918 293.144 547.478 293.138" class="color0a3e3f svgShape">
					</polygon>
					<polygon fill="#0a3e3f" points="547.584 299.112 547.637 302.099 546.939 302.106 546.932 299.119 547.584 299.112" class="color0a3e3f svgShape">
					</polygon>
					<polygon fill="#0a3e3f" points="547.689 305.087 547.742 308.074 546.954 308.082 546.947 305.094 547.689 305.087" class="color0a3e3f svgShape">
					</polygon>
					<polygon fill="#0a3e3f" points="547.795 311.061 547.836 314.048 546.98 314.057 546.961 311.069 547.795 311.061" class="color0a3e3f svgShape">
					</polygon>
					<polygon fill="#0a3e3f" points="547.873 317.036 547.911 320.023 547.025 320.032 547.003 317.044 547.873 317.036" class="color0a3e3f svgShape">
					</polygon>
					<polygon fill="#0a3e3f" points="547.948 323.01 547.986 325.998 547.07 326.007 547.048 323.019 547.948 323.01" class="color0a3e3f svgShape">
					</polygon>
					<polygon fill="#0a3e3f" points="548.023 328.985 548.061 331.972 547.115 331.982 547.093 328.994 548.023 328.985" class="color0a3e3f svgShape">
					</polygon>
					<polygon fill="#0a3e3f" points="548.099 334.959 548.136 337.947 547.16 337.957 547.137 334.969 548.099 334.959" class="color0a3e3f svgShape">
					</polygon>
					<rect width=".992" height="2.988" x="547.197" y="340.939" fill="#0a3e3f" transform="rotate(-.597 547.697 342.435)" class="color0a3e3f svgShape">
					</rect>
					<polygon fill="#0a3e3f" points="548.227 346.909 548.25 349.896 547.286 349.906 547.249 346.919 548.227 346.909" class="color0a3e3f svgShape">
					</polygon>
					<polygon fill="#0a3e3f" points="548.272 352.884 548.294 355.871 547.362 355.881 547.324 352.893 548.272 352.884" class="color0a3e3f svgShape">
					</polygon>
					<polygon fill="#0a3e3f" points="548.317 358.859 548.339 361.846 547.437 361.855 547.399 358.868 548.317 358.859" class="color0a3e3f svgShape">
					</polygon>
					<polygon fill="#0a3e3f" points="548.362 364.834 548.384 367.821 547.512 367.83 547.474 364.843 548.362 364.834" class="color0a3e3f svgShape">
					</polygon>
					<polygon fill="#0a3e3f" points="548.406 370.809 548.427 373.796 547.589 373.805 547.549 370.817 548.406 370.809" class="color0a3e3f svgShape">
					</polygon>
					<polygon fill="#0a3e3f" points="548.434 376.784 548.441 379.771 547.695 379.779 547.642 376.792 548.434 376.784" class="color0a3e3f svgShape">
					</polygon>
					<polygon fill="#0a3e3f" points="548.448 382.759 548.455 385.747 547.801 385.753 547.748 382.766 548.448 382.759" class="color0a3e3f svgShape">
					</polygon>
					<polygon fill="#0a3e3f" points="548.462 388.734 548.469 391.722 547.907 391.727 547.854 388.74 548.462 388.734" class="color0a3e3f svgShape">
					</polygon>
					<polygon fill="#0a3e3f" points="548.476 394.709 548.474 397.697 548.022 397.702 547.959 394.715 548.476 394.709" class="color0a3e3f svgShape">
					</polygon>
					<polygon fill="#0a3e3f" points="548.467 400.685 548.459 403.673 548.157 403.676 548.089 400.689 548.467 400.685" class="color0a3e3f svgShape">
					</polygon>
					<polygon fill="#0a3e3f" points="548.452 406.66 548.444 409.648 548.292 409.65 548.224 406.663 548.452 406.66" class="color0a3e3f svgShape">
					</polygon>
					<polygon fill="#0a3e3f" points="548.423 412.636 548.413 414.136 548.373 412.637 548.423 412.636" class="color0a3e3f svgShape">
					</polygon>
					<rect width="62.978" height="6.593" x="498.083" y="244.494" fill="#1b1e1e" transform="rotate(-180 529.572 247.79)" class="color1b1e1e svgShape">
					</rect>
					<polygon fill="#4fba75" points="549.823 142.917 545.255 140.649 519.535 140.471 509.32 142.598 509.32 244.494 547.674 244.494 549.823 142.917" class="color4fba75 svgShape">
					</polygon>
					<polygon fill="#f6b98a" points="539.374 130.435 539.875 133.722 534.122 146.476 530.733 146.476 524.915 133.722 525.584 130.86 539.374 130.435" class="colorf6b98a svgShape">
					</polygon>
					<ellipse cx="532.115" cy="101.649" fill="#f6b98a" rx="19.781" ry="30.943" class="colorf6b98a svgShape">
					</ellipse>
					<ellipse cx="552.896" cy="104.574" fill="#f6b98a" rx="5.121" ry="2.642" transform="rotate(-78.369 552.896 104.574)" class="colorf6b98a svgShape">
					</ellipse>
					<path fill="#874106" d="M545.53731,83.14021s-18.09279.26171-18.08516-5.65162c0,0-13.70516-2.51594-12.00967,26.50558,0,0-9.18387-3.61655-7.771-18.02816,0,0,4.66258-22.60644,32.77935-16.24838,0,0,17.76563,4.92623,11.426,30.65053C551.8769,100.36816,546.72766,88.946,545.53731,83.14021Z" class="color874106 svgShape">
					</path>
					<path fill="#020202" d="M547.51921 99.5299c-1.16907-.17077-2.25452-.42273-3.34143-.51526a4.99987 4.99987 0 00-3.1579.51526 2.50722 2.50722 0 011.41357-1.11609 4.30348 4.30348 0 011.81751-.18029A6.29541 6.29541 0 01547.51921 99.5299zM529.48317 99.5299a21.3821 21.3821 0 00-3.57377-.6626 7.859 7.859 0 00-1.73669.08716 7.57145 7.57145 0 00-1.71869.57544 3.53563 3.53563 0 011.54941-1.16418 4.93287 4.93287 0 011.95535-.28137A6.05111 6.05111 0 01529.48317 99.5299z" class="color020202 svgShape">
					</path>
					<ellipse cx="543.912" cy="105.499" fill="#020202" rx="1.342" ry="2.437" class="color020202 svgShape">
					</ellipse>
					<ellipse cx="525.969" cy="105.499" fill="#020202" rx="1.342" ry="2.437" class="color020202 svgShape">
					</ellipse>
					<path fill="#26b5bf" d="M513.29884,111.2178c23.99507-5.47885,37.63166,0,37.631-.00007-2.57462,12.41-10.02376,21.37408-18.81516,21.37408S515.8742,123.62773,513.29884,111.2178Z" class="color26b5bf svgShape">
					</path>
					<path fill="#15989b" d="M518.7501,110.12365a51.82054,51.82054,0,0,1-4.51361-5.053,51.22816,51.22816,0,0,1-3.89929-5.54077,51.23635,51.23635,0,0,1,4.51361,5.053A51.84337,51.84337,0,0,1,518.7501,110.12365Z" class="color15989b svgShape">
					</path>
					<polygon fill="#3ca05d" points="546.142 141.071 538.799 153.236 532.344 146.171 534.8 142.623 545.255 140.623 546.142 141.071" class="color3ca05d svgShape">
					</polygon>
					<polygon fill="#3ca05d" points="518.417 140.703 520.35 140.316 529.99 142.623 532.446 146.171 525.991 153.236 518.417 140.703" class="color3ca05d svgShape">
					</polygon>
					<polygon fill="#c0e2cc" points="529.766 151.666 524.956 215.576 530.551 221.134 537.099 215.765 535.863 150.938 529.766 151.666" class="colorc0e2cc svgShape">
					</polygon>
					<polygon fill="#a2ccae" points="535.878 151.709 532.446 154.853 529.711 152.401 529.766 151.666 535.863 150.938 535.878 151.709" class="colora2ccae svgShape">
					</polygon>
					<path fill="#f4f4f4" d="M491.8086 154.44267a2.38575 2.38575 0 00-4.04848 2.39536c3.21 8.32562 7.773 23.37493 9.10622 44.11772a180.36713 180.36713 0 01-5.11713 54.95892l-12.58673 50.74678 42.21419 2.26065-3.01419-105.96772S502.96324 167.8709 491.8086 154.44267zM569.953 152.46919s-8.56171 17.74816-9.18667 51.41869a204.705 204.705 0 006.13894 53.05088L579.238 306.66145l-42.21419 2.26065 3.0142-105.96772S560.27146 150.84435 569.953 152.46919z" class="colorf4f4f4 svgShape">
					</path>
					<path fill="#f4f4f4" d="M549.82312,142.917s20.12987,3.55919,36.17031,26.12774l2.449-24.44323h14.31742v49.4987s-6.38928,21.8529-38.04625-22.32386Z" class="colorf4f4f4 svgShape">
					</path>
					<path fill="#26b5bf" d="M595.14,140.59826a6.58644,6.58644,0,0,0-4.15435-5.27484s6.21677-1.97806,6.68774-4.52129a1.69773,1.69773,0,0,0-.885-2.04,2.46032,2.46032,0,0,0-2.429.19283l-7.32987,4.76715h0a17.72351,17.72351,0,0,0,2.51516,9.101l1.06419,1.77832h9.13678c6.40516-7.2058,2.07225-16.06,2.07225-16.06-1.22451-2.54323-3.29677-1.60129-3.29677-1.60129a2.49045,2.49045,0,0,0-3.29677-.75355c-.84774-1.97806-3.29678-.65936-3.29678-.65936.56517-15.35354-2.54322-11.02064-2.54322-11.02064l-1.13032,13.1871-1.22452,6.02838" class="color26b5bf svgShape">
					</path>
					<path fill="#15989b" d="M595.14006,140.59826a6.339,6.339,0,0,0-1.44782-3.12451,6.60852,6.60852,0,0,0-1.28363-1.1394,6.67619,6.67619,0,0,0-1.49921-.78907.23577.23577,0,0,1-.00054-.44336l.00579-.00207a22.69841,22.69841,0,0,0,3.76722-1.73279,10.35438,10.35438,0,0,0,1.657-1.16894,2.74733,2.74733,0,0,0,.99334-1.533,1.34938,1.34938,0,0,0-.55053-1.47766A1.9638,1.9638,0,0,0,595.086,129.03a3.70721,3.70721,0,0,0-.83337.46l-.88611.5675-1.77216,1.135L588.05,133.4624l-.44306.28381-.22149.14185-.11078.07092-.05536.0354-.0069.00452c-.03625.06128.28418-.52185.14887-.271l.00018.01611.00031.03223c-.00452.34436-.002.68872.0122,1.0332a17.761,17.761,0,0,0,.20832,2.059,18.482,18.482,0,0,0,1.12841,3.993,38.8503,38.8503,0,0,0,1.89826,3.74,30.44926,30.44926,0,0,1-2.19385-3.6084,16.74285,16.74285,0,0,1-1.35309-4.0293,18.32931,18.32931,0,0,1-.30505-2.1156c-.02966-.35584-.0481-.7124-.05768-1.06982l-.00079-.03345-.00043-.01673c-.13428.246.18207-.34484.15265-.28527l.0069-.00452.05487-.03625.10974-.07251.21954-.145.439-.28992,3.51214-2.31946,1.75611-1.15967.87805-.57995a3.95442,3.95442,0,0,1,1.01043-.53907,2.72287,2.72287,0,0,1,2.34974.26587,1.91468,1.91468,0,0,1,.78582,1.001,2.49889,2.49889,0,0,1,.06617,1.214,3.41106,3.41106,0,0,1-1.24311,1.93274,9.881,9.881,0,0,1-1.79693,1.22046,23.22506,23.22506,0,0,1-3.94226,1.61645l.00525-.44543a6.79306,6.79306,0,0,1,2.84356,2.19934,5.818,5.818,0,0,1,.86139,1.567A6.36161,6.36161,0,0,1,595.14006,140.59826Z" class="color15989b svgShape">
					</path>
					<path fill="#874106" d="M559.05408,414.13627l8.86811,4.6387a9.87027,9.87027,0,0,0,6.52279.95848c4.55365-.92023,12.49272-1.48458,12.96135,5.61185H538.04892s-1.88387-9.51355-.65935-11.209Z" class="color874106 svgShape">
					</path>
					<rect width="49.357" height="3.674" x="538.049" y="425.345" fill="#1b1e1e" transform="rotate(-180 562.728 427.182)" class="color1b1e1e svgShape">
					</rect>
					<path fill="#874106" d="M496.25287,414.13627l-8.8681,4.6387a9.87029,9.87029,0,0,1-6.5228.95848c-4.55365-.92023-12.49272-1.48458-12.96135,5.61185H517.258s1.88387-9.51355.65936-11.209Z" class="color874106 svgShape">
					</path>
					<rect width="49.357" height="3.674" x="467.901" y="425.345" fill="#1b1e1e" class="color1b1e1e svgShape">
					</rect>
					<path fill="#15989b" d="M523.73151,208.4176s3.95613-1.13032,11.68-7.06451l4.75-1.84808s-1.45319,5.42743-4.09061,6.93453l-2.63742,1.50709Z" class="color15989b svgShape">
					</path>
					<ellipse cx="510.099" cy="104.853" fill="#f6b98a" rx="2.821" ry="5.34" transform="rotate(-8.468 510.099 104.853)" class="colorf6b98a svgShape">
					</ellipse>
					<polygon fill="#4fba75" points="519.535 140.471 524.915 133.722 532.446 144.601 525.991 151.666 519.535 140.471" class="color4fba75 svgShape">
					</polygon>
					<polygon fill="#4fba75" points="545.255 140.623 539.875 133.722 532.344 144.601 538.799 151.666 545.255 140.623" class="color4fba75 svgShape">
					</polygon>
					<polygon fill="#c0e2cc" points="537.099 149.806 532.446 154.068 527.691 149.806 532.446 144.601 537.099 149.806" class="colorc0e2cc svgShape">
					</polygon>
					<path fill="#cecece" d="M549.82312,142.917l17.58553,16.8498-8.83064-.64537,4.51932,10.53032L540.038,202.95438S539.69054,188.50664,549.82312,142.917Z" class="colorcecece svgShape">
					</path>
					<path fill="#26b5bf" d="M539.8386,133.4474c8.36753,1.89957,14.29387,6.16183,17.64559,12.69258,7.05667,13.73656,1.02043,34.11376-1.91527,42.26935-.43957,1.24021-.81634,2.19784-1.06753,2.80225-.18053.471-.29043.73-.30612.75355l1.43645.628c.03924-.0785.12559-.29043.259-.61226.25118-.59656.64366-1.58559,1.13032-2.8886,3.022-8.24194,9.32516-29.1215,1.86032-43.66655-3.62645-7.07237-10.22-11.65645-19.294-13.60312Z" class="color26b5bf svgShape">
					</path>
					<circle cx="553.719" cy="194.262" r="6.132" fill="#9ce9ef" class="color9ce9ef svgShape">
					</circle>
					<circle cx="553.719" cy="194.262" r="3.155" fill="#26b5bf" class="color26b5bf svgShape">
					</circle>
					<polygon fill="#efaf84" points="526.652 236.676 563.764 236.676 580.342 173.378 542.664 170.686 526.652 236.676" class="colorefaf84 svgShape">
					</polygon>
					<path fill="#26b5bf" d="M522.74248,208.4176l20.74305-.94441a3.76717,3.76717,0,0,1,3.86869,4.67205c-1.1811,4.34357-7.28847,9.28284-25.89169,6.81026Z" class="color26b5bf svgShape">
					</path>
					<path fill="#cecece" d="M496.77126,199.63218l21.614,4.12155.3735,13.13214c-8.63709-.36431-15.71967-.90836-21.53552-1.56051A154.393,154.393,0,0,0,496.77126,199.63218Z" class="colorcecece svgShape">
					</path>
					<path fill="#cecece" d="M496.97463,202.853l21.54554,5.64563.37268,13.10281c-8.75274-.3666-15.8732-2.08967-21.73984-2.75063C497.37584,212.77078,497.26324,208.21716,496.97463,202.853Z" class="colorcecece svgShape">
					</path>
					<path fill="#f4f4f4" d="M509.3199,142.59826l-7.71915,1.45928a31.08958,31.08958,0,0,0-21.919,15.86335q-.68289,1.308-1.24565,2.68833c-5.13578,12.61269-12.67008,29.55847-10.6723,43.55729a6.54536,6.54536,0,0,0,3.1695,4.74242c4.668,2.70022,17.161,6.8373,50.44339,8.43512l1.5071-12.05677-35.22838-9.231,6.02838-16.76645,9.22077-11.68Z" class="colorf4f4f4 svgShape">
					</path>
					<path fill="#cecece" d="M509.3199,142.59826,495.00248,158.8718h8.85419l-5.27483,10.17291,19.78064,33.90967S520.9999,188.18793,509.3199,142.59826Z" class="colorcecece svgShape">
					</path>
					<path fill="#26b5bf" d="M524.92463,133.68288c-2.49613.7928-12.01753,4.3643-12.37075,12.88882l-1.56205-.0628c.43172-10.64387,13.1557-14.20752,14.32527-14.51365Z" class="color26b5bf svgShape">
					</path>
					<path fill="#104f54" d="M498.85472,185.21438a5.25283,5.25283,0,0,1-1.41895-.19629.78448.78448,0,1,1,.41992-1.51172c2.47168.67969,4.9541-1.3164,7.11914-4.208a51.87167,51.87167,0,0,1-2.59179-10.02051c-.084-.71387-1.85352-16.54,4.00293-21.65039a6.9148,6.9148,0,0,1,6.57422-1.30469,2.50964,2.50964,0,0,1,1.78222,1.06152c2.07617,2.707,1.32813,9.63379-2.2207,20.58887a53.64,53.64,0,0,1-5.75684,11.52539c1.04883,2.36621,2.03418,3.35449,2.70606,3.76367a1.34774,1.34774,0,0,0,1.04.26465.80428.80428,0,0,1,.99121.4707.76778.76778,0,0,1-.41016.98731,2.67848,2.67848,0,0,1-2.26367-.28125,8.34864,8.34864,0,0,1-3.13477-3.78027C503.70042,183.38821,501.37327,185.2134,498.85472,185.21438ZM510.716,147.59719a4.83425,4.83425,0,0,0-3.29785,1.21289c-5.24023,4.57325-3.5,20.08692-3.48242,20.24317a54.15157,54.15157,0,0,0,2.12988,8.67578,52.105,52.105,0,0,0,4.96778-10.25684c4.51367-13.93066,3.27148-17.96,2.52734-19.04492-.35254-.51367-.69824-.53906-.71289-.54a.49957.49957,0,0,1-.19824-.02441A7.79321,7.79321,0,0,0,510.716,147.59719Z" class="color104f54 svgShape">
					</path>
					<circle cx="512.069" cy="183.991" r="1.731" fill="#9ce9ef" class="color9ce9ef svgShape">
					</circle>
					<circle cx="497.306" cy="183.793" r="1.731" fill="#9ce9ef" class="color9ce9ef svgShape">
					</circle>
					<path fill="#15989b" d="M543.12754 112.15185a18.827 18.827 0 01-4.49139 1.82239 20.77456 20.77456 0 01-4.82483.72693 16.6277 16.6277 0 01-4.85956-.54688 14.314 14.314 0 01-4.41961-2.00244c.7745.25134 1.468.65454 2.25409.82776l1.13577.3501 1.16339.23584a21.69472 21.69472 0 004.704.35156 30.00359 30.00359 0 004.71008-.52808c.78034-.1488 1.55731-.32653 2.3252-.543C541.60405 112.66113 542.36216 112.40759 543.12754 112.15185zM541.78526 118.33239a13.393 13.393 0 01-4.10773 2.2898 12.94979 12.94979 0 01-4.69812.75647 13.35133 13.35133 0 01-2.38244-.29114 11.581 11.581 0 01-2.25184-.811 12.72762 12.72762 0 01-2.0484-1.19982 19.72484 19.72484 0 01-1.76458-1.55579 18.95679 18.95679 0 004.04766 2.19922 12.61227 12.61227 0 004.42072.87439 15.66045 15.66045 0 004.49829-.54614 17.54454 17.54454 0 002.178-.73719A16.76679 16.76679 0 00541.78526 118.33239zM540.56077 124.397a14.83449 14.83449 0 01-8.14587 2.799 10.57042 10.57042 0 01-4.32315-.79273 10.03388 10.03388 0 01-3.5596-2.47717 18.86638 18.86638 0 001.83334 1.09766l.94049.47314.99243.33911a12.50681 12.50681 0 004.10208.57569 18.65044 18.65044 0 004.143-.59388 18.29407 18.29407 0 002.02624-.62731A20.29319 20.29319 0 00540.56077 124.397zM567.53147 304.11828l-1.17169.13745a.0746.0746 0 11-.01739-.14819l.0094-.00061zM564.028 304.49816l-2.33405.19873a.265.265 0 11-.045-.52807l.01654-.00086 2.342-.05236a.19165.19165 0 01.02051.38256zM559.35954 304.89038l-2.33673.14917a.35656.35656 0 11-.04541-.71167l.0072-.00037 2.33929-.10193a.33289.33289 0 01.03565.6648zM554.68608 305.18859c-.77869.05433-1.55793.098-2.338.12647a.3811.3811 0 01-.04083-.761c.77863-.0553 1.558-.09521 2.33808-.12475a.38023.38023 0 01.04077.75927zM550.00877 305.41674l-2.33929.10181a.33344.33344 0 01-.03577-.66589l2.33679-.1493a.35724.35724 0 01.04553.713zM545.32786 305.57678l-2.342.05224a.19275.19275 0 01-.02063-.38476l2.33411-.19873a.26615.26615 0 01.04516.53039zM540.64158 305.637l-1.17975-.0116 1.1717-.13794a.075.075 0 01.01751.149zM518.8307 305.842l-1.17978-.007a.07465.07465 0 01.00089-.14929l.00939.00061zM515.30705 305.79016l-2.34085-.0885a.265.265 0 11.02-.52955l.01657.0011 2.33075.23487a.19159.19159 0 01-.02646.38208zM510.62568 305.60791l-2.33743-.13807a.35652.35652 0 11.04205-.71179l.00717.00049 2.33417.18518a.33291.33291 0 01-.046.66419zM505.95082 305.3319c-.77945-.0415-1.5582-.0935-2.33585-.16076a.38109.38109 0 01.05258-.76026c.77954.04041 1.558.0962 2.33576.16248a.38022.38022 0 01-.05249.75854zM501.2808 304.98571l-2.33416-.18542a.33339.33339 0 01.046-.66516l2.33743.13781a.35725.35725 0 01-.04208.71326zM496.61549 304.57141l-2.33075-.23474a.19276.19276 0 01.02661-.3844l2.34088.08837a.26618.26618 0 01-.02011.532zM491.95707 304.05749l-1.16943-.156 1.17978.0066a.075.075 0 01-.00083.15zM520.67021 208.259a14.73733 14.73733 0 01.08273 1.58948.26422.26422 0 01-.52844.00158.27526.27526 0 01.007-.061A14.736 14.736 0 01520.67021 208.259zM520.68757 211.42114c-.04806.52124-.09692 1.04236-.17312 1.5603a.3809.3809 0 01-.7565-.0863c.04248-.52185.11227-1.04053.18289-1.55921a.37588.37588 0 01.74673.08521zM520.244 214.53076a15.34809 15.34809 0 01-.40561 1.53369.05961.05961 0 01-.11642-.01319 15.3484 15.3484 0 01-.0496-1.58581.28864.28864 0 11.577.01868A.3118.3118 0 01520.244 214.53076zM599.93406 147.76245c-.52331.10547-1.04657.18737-1.56988.24182a.24319.24319 0 11-.05036-.48377.24853.24853 0 01.05036 0C598.88749 147.575 599.41075 147.65686 599.93406 147.76245zM596.79429 148.12072c-.52331.02906-1.04657.02893-1.56988.03125a.38959.38959 0 11-.00348-.77917h.00348c.52331.00232 1.04657.0022 1.56988.03125a.35889.35889 0 010 .71667zM593.65452 148.10314q-.785-.04431-1.56988-.14025a.20194.20194 0 010-.401q.78487-.09468 1.56988-.14026a.3413.3413 0 11.03851.68151A.33428.33428 0 01593.65452 148.10314z" class="color15989b svgShape">
					</path>
					<path fill="#e8a77c" d="M552.896 103.06213a1.781 1.781 0 01.65558 1.412 2.10887 2.10887 0 01-.17792.78759 1.72853 1.72853 0 01-.47766.62622 5.41288 5.41288 0 00.229-1.4154A4.45258 4.45258 0 00552.896 103.06213zM510.099 102.42639a8.47948 8.47948 0 00-.312 2.23425 3.83175 3.83175 0 00.1398 1.08521 5.57294 5.57294 0 00.41034 1.06042 2.52066 2.52066 0 01-.72018-.95117 3.2631 3.2631 0 01-.25654-1.18811A3.67792 3.67792 0 01510.099 102.42639z" class="colore8a77c svgShape">
					</path>
					<path fill="#0a3e3f" d="M521.37666,268.02917a30.7518,30.7518,0,0,0,4.6719-1.90857,23.51064,23.51064,0,0,0,4.16529-2.69556,17.40382,17.40382,0,0,0,3.38507-3.58239,21.73275,21.73275,0,0,0,2.394-4.41346,13.54806,13.54806,0,0,1-1.74023,4.83948l-.32355.56885-.39136.5227c-.26831.34253-.51288.70813-.80346,1.03309a17.46865,17.46865,0,0,1-1.88968,1.80688,17.7339,17.7339,0,0,1-4.47416,2.62793A16.45972,16.45972,0,0,1,521.37666,268.02917Z" class="color0a3e3f svgShape">
					</path>
					<path fill="#63daea" d="M56.58674,260.43757,44.46,411.278s8.06155,10.08426,23.988,2.61444L86.439,269.35154l5.60375.56023,7.37337,143.14035s11.8957,6.44271,22.31673-.28012l-1.1142-151.91738-63.97646-.4655A.05417.05417,0,0,0,56.58674,260.43757Z" class="color63daea svgShape">
					</path>
					<path fill="#26b5bf" d="M120.61869,263.18894q-.13794-1.16823-.25977-2.33622l-63.49778-.462q-.15429,1.39113-.32643,2.78269l21.409,4.09037A80.64185,80.64185,0,0,0,96.858,268.622C119.55641,267.55272,120.61869,263.18894,120.61869,263.18894Z" class="color26b5bf svgShape">
					</path>
					<path fill="#63daea" d="M122.42444 151.42464L104.299 145.6327l-13.88246 9.88276L74.00035 145.6327l-18.47779 5.76815a17.02416 17.02416 0 00-6.76664 4.0195c-3.55206 3.43506-9.72229 10.49859-19.16248 24.75286L44.257 191.6611l9.51783-10.95579s7.78884 40.20591 2.77936 80.1375l21.38953 4.08666A80.64214 80.64214 0 0096.858 266.28771c22.69837-1.0693 23.76069-5.43309 23.76069-5.43309-4.719-39.9635 3.34261-80.11379 3.34261-80.11379l9.43787 11.018 14.74673-11.39148c-9.33417-14.3126-15.45222-21.41645-18.97959-24.8756A17.02158 17.02158 0 00122.42444 151.42464zM113.34362 96.23856c0-13.76874-11.356-24.15241-25.36438-24.15241S62.61486 82.46982 62.61486 96.23856a25.36816 25.36816 0 0050.72876 0z" class="color63daea svgShape">
					</path>
					<path fill="#874106" d="M110.39428 97.63915l2.86848.58484-.10719 1.82126a10.98074 10.98074 0 01-.859 3.65242l-1.08018 2.54108s-.6.0954-.8512-2.32533A47.06808 47.06808 0 01110.39428 97.63915zM66.35071 102.12106c-2.51524 4.89878 2.82422 12.31463 5.30881 11.95169 2.31463-.33814 2.71761-7.51 2.75271-8.21684.118-2.37582.31753-6.39572-1.76958-7.28306C70.77025 97.77679 67.58116 99.72462 66.35071 102.12106z" class="color874106 svgShape">
					</path>
					<path fill="#f6b98a" d="M73.42913 99.31986s-3.97152 7.39571-5.89869 8.03c0 0-7.47168 7.28307 2.94934 8.59029 0 0 .58987 19.048 12.58388 21.84921v4.80385a2 2 0 01-1.71449 1.97952l-7.34881 1.05993s16.14173 23.15643 30.2986 0l-4.84836-1.00729a2 2 0 01-1.58407-1.76762l-.44938-4.6949s14.74673-5.04213 13.17375-21.66247c0 0 8.91918-4.46327.62544-10.26168 0 0-.69566.52914-.864-3.33783-.05417-1.24417-.05376-2.94341.042-5.26177C110.39428 97.63915 81.813 85.62922 73.42913 99.31986zM133.39918 191.75883l7.42252 7.65656-20.05556 26.191s3.38844 7.26693 3.95444 9.82433a.59323.59323 0 00.88045.36071c2.8776-1.67735 13.02229-8.56265 30.26234-30.39716 0 0 7.59107-7.95417-8.88665-24.12378zM43.88237 191.20967l-7.42252 7.65656 20.14642 26.3097s-3.4793 7.14828-4.0453 9.70567a.59323.59323 0 01-.88045.36072c-2.8776-1.67736-13.02229-8.56266-30.26234-30.39717 0 0-7.59107-7.95416 8.88666-24.12377z" class="colorf6b98a svgShape">
					</path>
					<path fill="#9ce9ef" d="M52.08606 235.33492c4.96473 7.93957 10.95983-.42886 10.95983-.42886l2.527.81336a11.23069 11.23069 0 0010.22075-1.56352q.28725-.2208.55958-.46162c3.34271-2.95825 1.60768-5.46-.65114-7.11988a13.08054 13.08054 0 00-6.77581-2.40716c-11.491-.8547-12.51642 1.2148-12.51642 1.2148h0a19.82358 19.82358 0 00-3.9748 8.40112zM99.41615 413.05212v12.23182h50.92539a5.431 5.431 0 00-3.73584-6.11591l-9.425.86072a10 10 0 01-6.2122-1.4803l-9.23561-5.77645zM68.48309 413.05212v12.23182H17.5577a5.431 5.431 0 013.73584-6.11591l8.52169.77823a10 10 0 007.48193-2.42182L44.46 411.278z" class="color9ce9ef svgShape">
					</path>
					<rect width="50.925" height="3.735" x="17.558" y="425.284" fill="#874106" class="color874106 svgShape">
					</rect>
					<rect width="50.925" height="3.735" x="99.45" y="425.284" fill="#874106" class="color874106 svgShape">
					</rect>
					<path fill="#9ce9ef" d="M73.13419,115.9402v12.21309s4.62065,15.14511,24.283,10.00961c0,0,13.54214-3.16819,13.23068-20.95582C110.64783,117.20708,96.87644,115.38,73.13419,115.9402Z" class="color9ce9ef svgShape">
					</path>
					<path fill="#63daea" d="M73.13419,115.94018c-.41973-.76318-.871-1.48694-1.32081-2.19934a21.72286,21.72286,0,0,0-1.47523-2.02539,13.74329,13.74329,0,0,0-1.75352-1.7489,12.28567,12.28567,0,0,0-2.14062-1.34986,6.0124,6.0124,0,0,1,2.497.83875,8.54753,8.54753,0,0,1,2.00974,1.74866A10.08215,10.08215,0,0,1,73.13419,115.94018Z" class="color63daea svgShape">
					</path>
					<path fill="#020202" d="M80.655 106.23876a6.33939 6.33939 0 013.39045-1.09289 5.944 5.944 0 011.80908.21887 4.04053 4.04053 0 011.584.874 13.19292 13.19292 0 00-3.36546-.29541C82.95744 105.97961 81.84819 106.12658 80.655 106.23876zM100.85805 106.23876a7.20978 7.20978 0 013.79572-.97509 6.0464 6.0464 0 011.97814.38134 3.81872 3.81872 0 011.59951 1.19129 8.66937 8.66937 0 00-1.77987-.595 11.64858 11.64858 0 00-1.81618-.17993C103.40568 106.03051 102.1694 106.15612 100.85805 106.23876z" class="color020202 svgShape">
					</path>
					<ellipse cx="83.604" cy="112.369" fill="#020202" rx="1.18" ry="2.311" class="color020202 svgShape">
					</ellipse>
					<ellipse cx="103.365" cy="112.369" fill="#020202" rx="1.18" ry="2.311" class="color020202 svgShape">
					</ellipse>
					<path fill="#26b5bf" d="M83.0673,141.57374c-8.93816,1.84411-15.26287,6.10035-18.81028,12.66757-9.3396,17.27394,3.30163,45.14569,3.43271,45.42581l-1.49925.62249c-.54071-1.16716-13.08363-28.821-3.39175-46.75638,3.80138-7.04186,10.73235-11.59378,20.26857-13.5157Z" class="color26b5bf svgShape">
					</path>
					<ellipse cx="68.191" cy="201.945" fill="#9ce9ef" rx="6.4" ry="6.078" class="color9ce9ef svgShape">
					</ellipse>
					<ellipse cx="68.191" cy="201.945" fill="#26b5bf" rx="3.293" ry="3.128" class="color26b5bf svgShape">
					</ellipse>
					<path fill="#26b5bf" d="M97.69114,141.61265c1.87611.52133,12.87882,3.97612,13.26387,12.87765l1.63033-.06225c-.45878-10.79233-14.34529-14.23933-15.01709-14.40274Z" class="color26b5bf svgShape">
					</path>
					<path fill="#26b5bf" d="M125.25071,192.81692c-2.63037,0-5.06152-1.82519-7.14355-4.28418a8.61055,8.61055,0,0,1-3.187,3.72949,2.89943,2.89943,0,0,1-2.41553.33008l.56787-1.49121a1.56484,1.56484,0,0,0,1.18457-.2998,8.13822,8.13822,0,0,0,2.75-3.665,52.162,52.162,0,0,1-5.98584-11.39551c-3.67187-10.76172-4.4751-17.61231-2.39453-20.37695a2.64741,2.64741,0,0,1,1.9165-1.14161,7.41587,7.41587,0,0,1,7.01465,1.45215c5.89356,5.23731,4.08106,20.63574,4.001,21.28809a49.90615,49.90615,0,0,1-2.70166,9.95508c2.26416,2.86425,4.87012,4.84863,7.45654,4.16211l.40723,1.54492A5.78413,5.78413,0,0,1,125.25071,192.81692ZM110.615,155.815a1.197,1.197,0,0,0-.769.58691c-.749,1.0957-1.98828,5.1211,2.68066,18.80567a50.22765,50.22765,0,0,0,5.209,10.18457,51.32031,51.32031,0,0,0,2.24511-8.66993c.01172-.10546,1.78614-15.17285-3.48437-19.85546-1.45752-1.29493-3.30713-1.64454-5.65381-1.07422l-.1123.02734Z" class="color26b5bf svgShape">
					</path>
					<ellipse cx="111.07" cy="192.447" fill="#9ce9ef" rx="1.806" ry="1.716" class="color9ce9ef svgShape">
					</ellipse>
					<ellipse cx="127.954" cy="191.387" fill="#9ce9ef" rx="1.806" ry="1.716" class="color9ce9ef svgShape">
					</ellipse>
					<path fill="#9ce9ef" d="M125.09844,235.84054c-4.96473,7.93957-10.96833-.7101-10.96833-.7101l-2.527.81336a11.23069,11.23069,0,0,1-10.22075-1.56352q-.28725-.2208-.55957-.46162c-3.34272-2.95824-1.60769-5.46.65113-7.11988a13.08063,13.08063,0,0,1,6.77581-2.40716c11.491-.8547,12.51642,1.21481,12.51642,1.21481l1.22046,1.74385a14.44718,14.44718,0,0,1,2.42875,5.92378Z" class="color9ce9ef svgShape">
					</path>
					<path fill="#26b5bf" d="M80.655 120.44043q2.91317.78112 5.853 1.33239a48.20026 48.20026 0 005.91106.76123 27.17332 27.17332 0 005.91407-.17321 15.719 15.719 0 005.59256-1.92041 12.74522 12.74522 0 01-5.48227 2.52453 21.72209 21.72209 0 01-6.07627.36536 32.6103 32.6103 0 01-5.98875-.96A34.0421 34.0421 0 0180.655 120.44043zM80.2583 124.95666q2.91317.78113 5.853 1.3324a48.20179 48.20179 0 005.911.76123 27.17278 27.17278 0 005.91408-.17322 15.71866 15.71866 0 005.59256-1.92041 12.74516 12.74516 0 01-5.48228 2.52454 21.722 21.722 0 01-6.07626.36535 32.6103 32.6103 0 01-5.98875-.96A34.05088 34.05088 0 0180.2583 124.95666zM80.2583 130.229q2.91317.78113 5.853 1.3324a48.20179 48.20179 0 005.911.76123 27.17278 27.17278 0 005.91408-.17322A15.71886 15.71886 0 00103.529 130.229a12.74516 12.74516 0 01-5.48228 2.52454 21.722 21.722 0 01-6.07626.36535 32.6103 32.6103 0 01-5.98875-.96A34.04011 34.04011 0 0180.2583 130.229z" class="color26b5bf svgShape">
					</path>
					<polygon fill="#f6b98a" points="239.731 146.967 216.243 146.967 217.131 130.253 238.844 130.253 239.731 146.967" class="colorf6b98a svgShape">
					</polygon>
					<path fill="#e8a77c" d="M238.84418,130.25321H217.13053l-.12422,1.64034a14.3273,14.3273,0,0,0,11.01889,4.82324,13.61042,13.61042,0,0,0,10.95326-4.69123Z" class="colore8a77c svgShape">
					</path>
					<path fill="#f4f4f4" d="M178.16305,257.04836l18.84309-11.17811s-29.70182-34.173-6.06811-58.44551l73.13673,20.44s10.35966,24.55239,18.91779,13.36225q.1761-.23023.35113-.48081c8.62311-12.34915,18.89632-24.858,16.34132-42.74294l-13.73309-4.15187-5.11,7.82467s-1.60385-34.79918-41.33586-42.6834c0,0-9.63531,15.41626-23.03743,0,0,0-34.57954,3.61327-51.187,43.85444S159.74579,221.172,178.16305,257.04836Z" class="colorf4f4f4 svgShape">
					</path>
					<path fill="#2d1505" d="M239.80231,409.70931l1.3229,14.80739h44.28862s.7695-4.92352-3.249-6.71855l-4.6272.53377a9,9,0,0,1-9.21132-5.18728l-2.016-4.39345Z" class="color2d1505 svgShape">
					</path>
					<rect width="44.289" height="4.103" x="241.125" y="424.517" fill="#874106" class="color874106 svgShape">
					</rect>
					<path fill="#2d1505" d="M217.4461,409.38994l-1.77535,15.526H171.38213s-.7695-4.92352,3.249-6.71855l4.5843.52882a9,9,0,0,0,9.2347-5.23867l1.84918-4.09758Z" class="color2d1505 svgShape">
					</path>
					<rect width="44.289" height="4.103" x="171.382" y="424.916" fill="#874106" class="color874106 svgShape">
					</rect>
					<path fill="#f6b98a" d="M209.67466,93.95451l.95812,10.00706s-7.02624,6.06811.85167,10.4329c0,0,.25265,20.3351,16.54075,20.548,15.285.1998,16.46126-18.41885,16.24835-21.29322,0,0,8.62311-4.15187.63875-9.90061l.7452-15.96872Z" class="colorf6b98a svgShape">
					</path>
					<path fill="#f6b98a" d="M209.67466,93.95451l.95812,10.00706s-7.02624,6.06811.85167,10.4329c0,0,.25265,20.3351,16.54075,20.548,15.285.1998,16.46126-18.41885,16.24835-21.29322,0,0,8.62311-4.15187.63875-9.90061l.7452-15.96872Z" class="colorf6b98a svgShape">
					</path>
					<path fill="#f27019" d="M194.45114,258.2194l-4.15186,151.17054s21.87714,5.26968,27.14682,0l8.62311-112.73916h3.23315l10.5,113.05853s17.56559,3.8325,26.50807-.95812L261.51977,258.2194Z" class="colorf27019 svgShape">
					</path>
					<path fill="#f6b98a" d="M287.81145,174.41352l2.6117-7.58843s-2.23562-7.90451-.47906-11.41763c0,0-1.517-7.10608-1.19766-10.45951,0,0,1.99609-4.47124,6.148,9.50139,0,0,.15969-2.95422,1.35734-2.87437a4.55278,4.55278,0,0,0,1.264-.112.88777.88777,0,0,1,1.07221.914l-1.15041,24.94681Z" class="colorf6b98a svgShape">
					</path>
					<path fill="#020202" d="M215.52986 101.51306a7.62585 7.62585 0 012.04757-1.0929 8.5772 8.5772 0 012.28673-.51782 6.04833 6.04833 0 012.37485.24011 3.7043 3.7043 0 011.914 1.37061 6.41252 6.41252 0 00-2.07522-.69739 9.26017 9.26017 0 00-2.14117-.02966A42.091 42.091 0 00215.52986 101.51306zM232.13732 100.90979a5.736 5.736 0 011.80332-.87879 7.73822 7.73822 0 011.9921-.32532 6.55207 6.55207 0 012.01676.25733 4.71468 4.71468 0 011.78183.94678c-.67338-.09827-1.2848-.22474-1.91348-.26709a15.625 15.625 0 00-1.863-.05066C234.707 100.61608 233.469 100.7738 232.13732 100.90979z" class="color020202 svgShape">
					</path>
					<path fill="#e8a77c" d="M228.1428,117.55227a2.08389,2.08389,0,0,1-.23486-.01367,2.13264,2.13264,0,0,1-1.57227-1.14941,3.79984,3.79984,0,0,1-.27832-3.16895,31.60284,31.60284,0,0,0,.916-5.67187l.88476.0664a31.66531,31.66531,0,0,1-.96289,5.89649,2.95715,2.95715,0,0,0,.20606,2.43066,1.25927,1.25927,0,0,0,.91211.71582c.44922.05859,1.27051-.17285,2.6084-1.55957l.63867.61523C230.07005,116.94876,229.0471,117.55227,228.1428,117.55227Z" class="colore8a77c svgShape">
					</path>
					<path fill="#a03041" d="M224.153,120.83518h7.98436S228.94358,132.652,224.153,120.83518Z" class="colora03041 svgShape">
					</path>
					<polygon fill="#f4f4f4" points="219.433 383.414 220.003 375.955 191.218 375.955 191.013 383.414 219.433 383.414" class="colorf4f4f4 svgShape">
					</polygon>
					<polygon fill="#f4f4f4" points="218.076 401.157 218.646 393.698 190.73 393.698 190.525 401.157 218.076 401.157" class="colorf4f4f4 svgShape">
					</polygon>
					<polygon fill="#f4f4f4" points="265.267 375.955 236.667 375.955 237.36 383.414 265.504 383.414 265.267 375.955" class="colorf4f4f4 svgShape">
					</polygon>
					<polygon fill="#f4f4f4" points="265.831 393.698 238.315 393.698 239.008 401.157 266.069 401.157 265.831 393.698" class="colorf4f4f4 svgShape">
					</polygon>
					<rect width="6.813" height="214.715" x="296.225" y="121.554" fill="#2d1505" class="color2d1505 svgShape">
					</rect>
					<polygon fill="#303030" points="310.136 350.721 290.015 350.721 296.225 336.269 303.038 336.269 310.136 350.721" class="color303030 svgShape">
					</polygon>
					<rect width="20.121" height="29.409" x="290.015" y="350.721" fill="#757575" class="color757575 svgShape">
					</rect>
					<path fill="#e8e377" d="M285.47284,428.88742s3.19375-3.03406,5.6689,0c0,0,3.19374-3.19375,6.2278,0,0,0,3.1139-3.27359,5.98827,0,0,0,2.47515-3.35343,5.74874,0,0,0,2.87437-3.43328,5.90842,0l-4.87933-48.75783H290.01506Z" class="colore8e377 svgShape">
					</path>
					<ellipse cx="220.587" cy="106.091" fill="#020202" rx="1.437" ry="2.449" class="color020202 svgShape">
					</ellipse>
					<ellipse cx="235.934" cy="106.091" fill="#020202" rx="1.437" ry="2.449" class="color020202 svgShape">
					</ellipse>
					<path fill="#cc546b" d="M230.66575,124.30469c-.39462-.88131-1.05176-1.43448-1.66081-1.30279-.77582.16786-1.17283,1.37534-.88693,2.69708.02816.13039.06606.25363.10483.37589C229.20453,126.15317,230.03028,125.32807,230.66575,124.30469Z" class="colorcc546b svgShape">
					</path>
					<path fill="#601f24" d="M210.63278,106.623s3.19374-6.17457,1.70333-10.53935c0,0,24.86951,2.97936,30.83117-6.06958,0,0-.91644,19.80268,1.95793,15.75727,0,0,9.68769-19.5883-9.1554-30.97932S199.02884,92.35763,210.63278,106.623Z" class="color601f24 svgShape">
					</path>
					<path fill="#cec65f" d="M291.02452 426.34643c.06595-3.37585.22888-6.74438.40649-10.11194.17554-3.36767.43063-6.72949.64206-10.09448.28305-3.35974.52792-6.72241.8468-10.07947.3197-3.35705.65323-6.713 1.08548-10.06177-.06454 3.37586-.22781 6.74451-.40494 10.11207-.17791 3.36755-.42984 6.72949-.64361 10.09436-.2854 3.35961-.5271 6.72241-.84833 10.07934C291.78926 419.6416 291.45539 422.99755 291.02452 426.34643zM298.31691 385.99877c.08972 3.22486.08224 6.447.06 9.66858-.02014 3.22181-.12 6.44117-.17608 9.66187-.12787 3.2185-.21747 6.43823-.38126 9.65576-.16461 3.21753-.34308 6.43469-.62051 9.64893-.09116-3.22486-.08332-6.4469-.06162-9.66858.02249-3.22168.1192-6.44116.17765-9.66175.13021-3.2185.21664-6.43835.38281-9.65588C297.862 392.43017 298.04087 389.21313 298.31691 385.99877zM302.14939 385.99877c.276 3.21436.45487 6.4314.619 9.64893.16617 3.21753.25263 6.43738.38281 9.65588.05845 3.22059.15516 6.44007.17765 9.66175.0217 3.22168.02954 6.44372-.06159 9.66858-.27743-3.21424-.45593-6.4314-.62054-9.64893-.16379-3.21753-.25339-6.43726-.38126-9.65576-.05609-3.2207-.15594-6.44006-.17608-9.66187C302.06715 392.4458 302.05967 389.22363 302.14939 385.99877zM306.78031 385.99877c.34241 3.09119.58771 6.18738.81827 9.28431.23264 3.0968.38562 6.19775.58234 9.29651.125 3.10229.28824 6.20275.37735 9.307.08829 3.10425.16272 6.20923.1383 9.31934-.34381-3.09119-.58874-6.18738-.81982-9.2843-.23025-3.09693-.38641-6.19764-.58078-9.29651-.12265-3.10254-.289-6.20276-.37579-9.30713C306.83137 392.21374 306.7573 389.10876 306.78031 385.99877z" class="colorcec65f svgShape">
					</path>
					<path fill="#d6d5d4" d="M280.84193,181.676c-.96994,2.15515-2.01874,4.22583-3.05618,6.31226l-1.58527,3.11486c-.54,1.03528-1.07085,2.07605-1.677,3.09571A30.192,30.192,0,0,1,276.9936,187.59c.53348-1.04932,1.10718-2.07873,1.7432-3.07068A21.67348,21.67348,0,0,1,280.84193,181.676Z" class="colord6d5d4 svgShape">
					</path>
					<path fill="#f6b98a" d="M308.45527,154.67639a3.5064,3.5064,0,0,0-4.1291-3.42434c-2.12249.40486-4.35635,1.39629-4.64117,3.75619v6.46734a3.1139,3.1139,0,0,0,3.1139,3.11389h0l.15969,4.71078S308.64887,169.784,308.45527,154.67639Z" class="colorf6b98a svgShape">
					</path>
					<path fill="#f27019" d="M203.52038,142.71991s5.91653,20.6453,25.09141,21.60342,24.13058-21.20939,24.13058-21.20939,8.84648,3.81748,15.10887,10.42277L261.51977,258.2194H194.45114l2.555-12.34915-3.847-5.09512-5.11148-88.91926A75.64183,75.64183,0,0,1,203.52038,142.71991Z" class="colorf27019 svgShape">
					</path>
					<polygon fill="#dd6512" points="261.649 262.288 261.52 258.219 195.736 258.219 194.451 264.43 261.52 264.43 261.649 262.288" class="colordd6512 svgShape">
					</polygon>
					<polygon fill="#f4f4f4" points="264.726 205.204 191.272 205.418 190.827 198.02 265.161 198.02 264.726 205.204" class="colorf4f4f4 svgShape">
					</polygon>
					<polygon fill="#f4f4f4" points="265.883 186.073 266.336 178.586 189.67 178.808 190.108 186.073 265.883 186.073 265.883 186.073" class="colorf4f4f4 svgShape">
					</polygon>
					<path fill="#f6b98a" d="M182.82986,254.27991c5.60447,9.43671,16.64067,2.5163,16.64067,2.5163l2.30437,1.82134a10.8838,10.8838,0,0,0,8.3281,2.35883,11.47527,11.47527,0,0,0,5.5056-2.40249q.32427-.26243.63168-.54866c3.77345-3.51608,1.81485-6.48959-.735-8.46245a14.304,14.304,0,0,0-7.64892-2.86107c-12.97172-1.01587-10.85018-.83146-10.85018-.83146Z" class="colorf6b98a svgShape">
					</path>
					<rect width="17.985" height="28.345" x="371.105" y="143.601" fill="#f6b98a" class="colorf6b98a svgShape">
					</rect>
					<rect width="19.833" height="15.915" x="371.601" y="160.655" fill="#fafcfc" class="colorfafcfc svgShape">
					</rect>
					<ellipse cx="380.592" cy="118.852" fill="#f6b98a" rx="21.226" ry="29.144" transform="rotate(-8.08 380.592 118.852)" class="colorf6b98a svgShape">
					</ellipse>
					<ellipse cx="357.682" cy="125.207" fill="#f6b98a" rx="3.401" ry="6.681" transform="rotate(-22.507 357.682 125.207)" class="colorf6b98a svgShape">
					</ellipse>
					<path fill="#442005" d="M362.34151,411.209l.45215,14.06041H316.16082a5.44014,5.44014,0,0,1,3.78643-6.13971l9.00773.81478a9.43858,9.43858,0,0,0,6.96422-2.20946l7.67544-6.526Z" class="color442005 svgShape">
					</path>
					<rect width="46.633" height="3.749" x="316.161" y="425.269" fill="#874106" class="color874106 svgShape">
					</rect>
					<path fill="#442005" d="M391.14767,411.209l.50686,14.06041h47.4632a5.44015,5.44015,0,0,0-3.78643-6.13971l-8.74866.79135a9.43862,9.43862,0,0,1-7.29117-2.50078L412.638,411.209Z" class="color442005 svgShape">
					</path>
					<rect width="47.463" height="3.749" x="391.655" y="425.269" fill="#874106" class="color874106 svgShape">
					</rect>
					<polygon fill="#b28b4d" points="371.105 149.314 360.741 157.106 382.46 175.064 371.105 149.314" class="colorb28b4d svgShape">
					</polygon>
					<polygon fill="#b28b4d" points="389.09 149.901 382.46 175.064 400.407 155.493 394.92 154.848 389.09 149.901" class="colorb28b4d svgShape">
					</polygon>
					<path fill="#b28b4d" d="M360.74116,157.10622h-3.60258a32.55643,32.55643,0,0,0-22.1141,8.52815l-14.46334,13.40878,15.94627,15.32359,14.06015-10.32327,5.37258,61.34813,57.61232-1.2904V185.81779L435.5,194.4205l5.48689-20.86159-40.58011-18.0657-17.9467,19.57118Z" class="colorb28b4d svgShape">
					</path>
					<polygon fill="#997137" points="382.734 178.51 400.407 155.493 382.46 175.064 382.734 178.51" class="color997137 svgShape">
					</polygon>
					<polygon fill="#997137" points="382.734 178.51 382.46 175.064 360.741 157.106 382.734 178.51" class="color997137 svgShape">
					</polygon>
					<rect width="17.832" height="5.592" x="356.397" y="180.226" fill="#473418" class="color473418 svgShape">
					</rect>
					<ellipse cx="400.407" cy="184.904" fill="#e8e377" rx="6.573" ry="6.183" class="colore8e377 svgShape">
					</ellipse>
					<polygon fill="#b28b4d" points="355.94 245.392 343.595 411.209 362.342 411.209 380.774 277.867 386.118 277.437 391.148 411.209 412.638 411.209 413.552 244.101 355.94 245.392" class="colorb28b4d svgShape">
					</polygon>
					<path fill="#473418" d="M350.9426,245.3916h63.68875a6.237,6.237,0,0,1,6.237,6.237v0a0,0,0,0,1,0,0H350.9426a3.11848,3.11848,0,0,1-3.11848-3.11848v0A3.11848,3.11848,0,0,1,350.9426,245.3916Z" class="color473418 svgShape">
					</path>
					<path fill="#473418" d="M413.55246,251.62858h7.31585a0,0,0,0,1,0,0v14.29849a7.31584,7.31584,0,0,1-7.31584,7.31584h0a0,0,0,0,1,0,0V251.62858A0,0,0,0,1,413.55246,251.62858Z" class="color473418 svgShape">
					</path>
					<path fill="#f6b98a" d="M440.59093 175.06439l8.91207 2.20444 2.22905-36.29271s-9.40722-7.46683-12.571-15.23107a1.32936 1.32936 0 011.541-1.74471 11.07855 11.07855 0 016.91491 4.3943s-2.46043-31.88985 11.41371-20.92771a18.1423 18.1423 0 016.71887 12.53849c.60683 6.17051.62578 15.13578-3.38656 20.00289 0 0 9.01937 36.34288 2.849 51.9613a6.37586 6.37586 0 01-4.66744 3.85321c-4.08045.83914-12.159 1.36185-24.715-2.65485zM334.83856 192.76305l-8.84768 10.0451 24.691 24.51775v10.10819s-30.61216-14.10884-42.36694-30.41744a6.02728 6.02728 0 01-.68139-5.88048c1.72365-4.1202 5.97553-11.68416 15.83734-19.29691z" class="colorf6b98a svgShape">
					</path>
					<path fill="#b28b4d" d="M353.10285,103.48s-14.2652-.29919.24082-11.63944c0,0,3.14432-10.48375,17.12249-13.07811,0,0,10.54489-5.8247,14.96354-9.90822,0,0,6.28445,5.196,11.4904,6.24355,0,0,21.2603,5.9463,10.6076,15.49059l-3.39115,4.03528.34192,6.444-41.11758,4.84356Z" class="colorb28b4d svgShape">
					</path>
					<ellipse cx="387.38" cy="90.803" fill="#e8e377" rx="6.768" ry="6.367" class="colore8e377 svgShape">
					</ellipse>
					<path fill="#b28b4d" d="M363.36089,105.91125s35.80568,8.18227,46.38049,3.82173a3.34075,3.34075,0,0,0,.72442-5.86635,17.17387,17.17387,0,0,0-5.98733-2.79894Z" class="colorb28b4d svgShape">
					</path>
					<polygon fill="#997137" points="404.355 98.739 363.361 105.911 404.478 101.068 404.355 98.739" class="color997137 svgShape">
					</polygon>
					<path d="M369.6002 113.2323a7.063 7.063 0 012.30917-1.77381 7.74867 7.74867 0 012.84531-.84668 5.98457 5.98457 0 013.03482.47254 4.25787 4.25787 0 012.07956 2.14795 9.68014 9.68014 0 00-2.48413-.95789 10.35053 10.35053 0 00-2.47876-.05945A53.00179 53.00179 0 00369.6002 113.2323zM390.176 113.2323a4.50087 4.50087 0 012.00329-1.5763 5.99425 5.99425 0 012.5394-.51294 6.10619 6.10619 0 012.5217.5603 5.3179 5.3179 0 012.02325 1.52894c-.86868-.07776-1.62091-.23926-2.3735-.32178a19.87328 19.87328 0 00-2.18833-.15723A21.42975 21.42975 0 00390.176 113.2323z" fill="#000000" class="color000 svgShape">
					</path>
					<ellipse cx="374.735" cy="119.503" rx="1.715" ry="3.313" fill="#000000" class="color000 svgShape">
					</ellipse>
					<ellipse cx="393.834" cy="119.503" rx="1.715" ry="3.313" fill="#000000" class="color000 svgShape">
					</ellipse>
					<ellipse cx="384.589" cy="137.029" fill="#a03041" rx="4.72" ry="4.44" class="colora03041 svgShape">
					</ellipse>
					<path fill="#e8a77c" d="M384.9232,121.03784a7.66033,7.66033,0,0,1,1.93219,1.30566,7.85657,7.85657,0,0,1,1.52383,1.85388,3.88865,3.88865,0,0,1,.53659,2.6399,3.18093,3.18093,0,0,1-1.77725,2.16931l.07013-.04554a3.92212,3.92212,0,0,1-1.08585.44617,3.31281,3.31281,0,0,1-1.1463.10486,2.43408,2.43408,0,0,1-1.08871-.34778,2.19377,2.19377,0,0,1-.74188-.76965,2.91047,2.91047,0,0,0,.92642.27051,2.34,2.34,0,0,0,.85422-.063,3.81393,3.81393,0,0,0,1.44863-.77393l.07044-.04565a2.11731,2.11731,0,0,0,.89361-1.246,3.18355,3.18355,0,0,0-.291-1.6886A31.72535,31.72535,0,0,0,384.9232,121.03784Z" class="colore8a77c svgShape">
					</path>
					<path fill="#f6b98a" d="M350.53854,237.92413c7.79109,5.67611,10.16458-4.23677,10.16458-4.23677l2.701-.125a11.04134,11.04134,0,0,0,9.02328-5.03759q.18431-.30674.3467-.62694c1.99246-3.93245-.6234-5.66126-3.40323-6.42058a13.61884,13.61884,0,0,0-7.33109.124c-11.16824,3.22412-11.32418,5.51554-11.32418,5.51554h0a19.20785,19.20785,0,0,0-.456,9.23623Z" class="colorf6b98a svgShape">
					</path>
					<path fill="#3f1510" d="M354.70665,103.86014s.44111,16.43887,4.78479,17.33717c0,0,1.90059-13.09813,3.86945-15.28606Z" class="color3f1510 svgShape">
					</path>
					<polygon fill="#997137" points="384.187 245.403 382.058 175.076 382.863 175.052 384.991 245.379 384.187 245.403" class="color997137 svgShape">
					</polygon>
					<ellipse cx="385.977" cy="185.361" fill="#473418" rx="1.388" ry="1.306" class="color473418 svgShape">
					</ellipse>
					<ellipse cx="386.807" cy="199.137" fill="#473418" rx="1.388" ry="1.306" class="color473418 svgShape">
					</ellipse>
					<ellipse cx="386.807" cy="212.086" fill="#473418" rx="1.388" ry="1.306" class="color473418 svgShape">
					</ellipse>
					<ellipse cx="387.384" cy="226.611" fill="#473418" rx="1.388" ry="1.306" class="color473418 svgShape">
					</ellipse>
					<ellipse cx="387.702" cy="240.984" fill="#473418" rx="1.388" ry="1.306" class="color473418 svgShape">
					</ellipse>
					<path fill="#997137" d="M375.14457 275.54162a17.522 17.522 0 002.46906-.28137 19.52 19.52 0 002.39789-.54968 17.478 17.478 0 004.42346-2.01331 15.46726 15.46726 0 003.6593-3.17517 23.02044 23.02044 0 002.744-4.104 23.71835 23.71835 0 01-.92713 2.33642 15.37364 15.37364 0 01-1.33258 2.15381 13.10614 13.10614 0 01-3.71334 3.46912 14.39883 14.39883 0 01-4.69968 1.93017A14.23745 14.23745 0 01375.14457 275.54162zM369.01655 251.62854a26.64041 26.64041 0 01-.138 3.22631.169.169 0 11-.33676-.0299l.0025-.0177C368.74556 253.75671 368.89927 252.69689 369.01655 251.62854zM368.39631 258.05847c-.25805 1.04907-.49881 2.10705-.78439 3.15295a.3488.3488 0 11-.673-.18371l0-.00013.00833-.03051c.28021-1.02515.60528-2.03821.913-3.06018l.00693-.02295a.27432.27432 0 01.52908.14453zM366.48771 264.26794c-.49212.97021-.96325 1.95483-1.47955 2.9137a.39318.39318 0 01-.69992-.358l.02234-.04577c.46408-.95105.97326-1.87647 1.46148-2.81616l.02085-.04017a.37927.37927 0 01.6748.34644zM363.11012 269.84973a16.97834 16.97834 0 01-2.31024 2.32336.31722.31722 0 01-.41547-.47888 21.18839 21.18839 0 002.16275-2.30383.36333.36333 0 01.5704.45019zM358.08747 273.9989a15.53827 15.53827 0 01-3.00961 1.22876.08316.08316 0 01-.05487-.15686 18.84365 18.84365 0 002.84052-1.45765.22308.22308 0 11.2326.38074zM400.703 251.62854l.03165 3.22155a.03163.03163 0 01-.06326.00061v-.00061zM400.76622 258.07153l.03161 3.22143a.09487.09487 0 01-.18973.002v-.002l.03162-3.22143a.06325.06325 0 01.1265 0zM400.82945 264.51452l.03161 3.22144a.15812.15812 0 01-.31622.00317V267.736l.03165-3.22144a.12649.12649 0 01.253 0zM400.89271 270.95739l.01849 3.22156a.20824.20824 0 01-.41647.00232V274.179l.0185-3.22156a.18974.18974 0 01.37948 0zM400.9221 277.40039l.01089 3.22143a.23.23 0 11-.46005.00159v-.00159l.0109-3.22143a.21913.21913 0 01.43826 0zM400.94389 283.84338l.01089 3.22143a.25182.25182 0 11-.50363.00171v-.00171l.0109-3.22143a.24092.24092 0 01.48184 0zM400.96568 290.28637l.01089 3.22144a.27361.27361 0 11-.54721.00183v-.00183l.0109-3.22144a.26271.26271 0 01.52542 0zM400.98747 296.72924l.01089 3.22156a.2954.2954 0 11-.59079.00195v-.00195l.0109-3.22156a.2845.2845 0 01.569 0zM401.00926 303.17224l.01089 3.22143a.31719.31719 0 01-.63437.0022v-.0022l.0109-3.22143a.30629.30629 0 01.61258 0zM401.03105 309.61523l.01089 3.22144a.339.339 0 01-.678.00231v-.00231l.0109-3.22144a.32808.32808 0 01.65616 0zM401.05284 316.0581l.01089 3.22156a.36077.36077 0 01-.72153.00244v-.00244l.0109-3.22156a.34987.34987 0 01.69974 0zM401.07463 322.50109l.01089 3.22144a.38255.38255 0 11-.7651.00269v-.00269l.01089-3.22144a.37166.37166 0 01.74332 0zM401.09642 328.94409l.00756 3.22143a.401.401 0 11-.802.00183v-.00183l.00757-3.22143a.39345.39345 0 01.7869 0zM401.093 335.387l-.011 3.22156a.37908.37908 0 01-.75815 0l-.011-3.22156a.39.39 0 11.78009-.00257zM401.07109 341.83l-.011 3.22144a.35716.35716 0 01-.71432 0l-.011-3.22144a.36812.36812 0 11.73624-.00244zM401.04914 348.27294l-.011 3.22144a.33522.33522 0 01-.67044 0l-.011-3.22144a.34618.34618 0 11.69235-.00231zM401.02723 354.71594l-.011 3.22143a.3133.3133 0 01-.62659 0l-.011-3.22143a.32427.32427 0 11.64853-.00232zM401.00529 361.15881l-.011 3.22156a.29137.29137 0 01-.58273 0l-.011-3.22156a.30232.30232 0 01.60464-.00208zM400.98335 367.6018l-.011 3.22144a.26943.26943 0 01-.53885 0l-.011-3.22144a.2804.2804 0 01.56079-.002zM400.96144 374.0448l-.011 3.22143a.24751.24751 0 01-.495 0l-.011-3.22143a.25847.25847 0 11.51694-.00184zM400.93949 380.48767l-.01095 3.22155a.22557.22557 0 01-.45114 0l-.011-3.22155a.23653.23653 0 01.47305-.00159zM400.91758 386.93066l-.011 3.22144a.20365.20365 0 01-.40729 0l-.011-3.22144a.21462.21462 0 01.42923-.00147zM400.87916 393.37365l-.03183 3.22144a.14437.14437 0 01-.28873 0l-.03183-3.22144a.1762.1762 0 11.35239-.00354zM400.8155 399.81652l-.03183 3.22156a.08072.08072 0 01-.16144 0l-.0318-3.22156a.11254.11254 0 11.22507-.00219zM400.75187 406.25952L400.72 409.481a.01708.01708 0 01-.03415 0l-.03183-3.22143a.04891.04891 0 01.09781-.001zM356.39738 183.02185c.5369-.06458 1.07382-.10218 1.61075-.14624a.14679.14679 0 01.024.2926.17416.17416 0 01-.024 0C357.4712 183.12414 356.93428 183.08642 356.39738 183.02185zM359.61885 182.77465l1.61074-.07959a.32724.32724 0 01.03229.65369c-.01071.00049-.02179.00049-.03229 0l-1.61074-.07959a.24756.24756 0 010-.49451zM362.84034 182.64794l1.61072-.02124a.39524.39524 0 01.01041.79041h-.01041l-1.61072-.02124a.374.374 0 010-.74793zM366.06181 182.62536l1.61075.01856a.378.378 0 010 .756l-1.61075.01855a.39657.39657 0 11-.00916-.79309zM369.28328 182.68786l1.61074.08008a.25428.25428 0 010 .50793l-1.61074.08008a.33446.33446 0 01-.03321-.66809C369.26109 182.68737 369.2725 182.68737 369.28328 182.68786zM372.50477 182.86547c.5369.04725 1.07382.07825 1.61075.14392a.01262.01262 0 010 .025c-.53693.06567-1.07385.09668-1.61075.14392a.157.157 0 01-.02749-.31287A.18823.18823 0 01372.50477 182.86547z" class="color997137 svgShape">
					</path>
					<path fill="#cc546b" d="M389.178,138.04a2.89094,2.89094,0,0,0-4.38471,3.407,4.96414,4.96414,0,0,0,.68393-.05738A4.596,4.596,0,0,0,389.178,138.04Z" class="colorcc546b svgShape">
					</path>
					<path fill="#26b5bf" d="M109.15354 459.37063q-1.541-.52587-2.7998-1.06836a8.55487 8.55487 0 01-2.16992-1.3125 5.41943 5.41943 0 01-1.418-1.83691 6.03521 6.03521 0 01-.50781-2.60742 5.72745 5.72745 0 012.293-4.75977 10.22911 10.22911 0 016.42285-1.78516 17.45513 17.45513 0 012.7998.21 8.34538 8.34538 0 012.22266.64746 3.87918 3.87918 0 011.45215 1.12011 2.539 2.539 0 01.52539 1.5918 2.79652 2.79652 0 01-.4209 1.55762 4.3292 4.3292 0 01-1.01465 1.10254 7.94969 7.94969 0 00-2.06445-.85743 10.36173 10.36173 0 00-2.83594-.36718 4.66937 4.66937 0 00-2.30957.4375 1.2756 1.2756 0 00-.73535 1.10254 1.02035 1.02035 0 00.45508.85742 4.72006 4.72006 0 001.36523.6123l1.85547.59473a13.42993 13.42993 0 015.05664 2.67773 5.72219 5.72219 0 011.76758 4.42774 5.82385 5.82385 0 01-2.34473 4.8125q-2.34522 1.83692-6.89453 1.83691a16.07263 16.07263 0 01-2.99316-.26172 9.483 9.483 0 01-2.415-.7705 4.44925 4.44925 0 01-1.60938-1.25977 2.76415 2.76415 0 01-.57812-1.73242 2.62186 2.62186 0 01.5957-1.73242 4.5176 4.5176 0 011.29492-1.10254 9.47711 9.47711 0 002.39746 1.33008 8.36089 8.36089 0 003.09766.55957 4.16316 4.16316 0 002.415-.52442 1.51648 1.51648 0 00.69922-1.22558 1.19834 1.19834 0 00-.55957-1.06739 7.25978 7.25978 0 00-1.5752-.71777zM127.91331 461.96048a1.44069 1.44069 0 00.57715 1.29492 2.91842 2.91842 0 001.62793.38476 7.00584 7.00584 0 001.085-.08789 5.98693 5.98693 0 00.97949-.22754 4.3402 4.3402 0 01.543.8584 2.60431 2.60431 0 01.22754 1.13672 2.704 2.704 0 01-.99805 2.16992 5.55988 5.55988 0 01-3.51758.84082 7.16977 7.16977 0 01-4.74218-1.40039q-1.6626-1.39893-1.66211-4.5498V447.39993q.38379-.104 1.10254-.22754a9.09805 9.09805 0 011.52246-.12207 4.48213 4.48213 0 012.39746.542 2.5366 2.5366 0 01.85742 2.293v2.24023h4.585a6.08408 6.08408 0 01.40235.96192 4.03935 4.03935 0 01.19238 1.27734 2.4283 2.4283 0 01-.542 1.76758 1.96355 1.96355 0 01-1.45313.543h-3.18457zM142.96312 450.27005a14.40914 14.40914 0 013.44726.38476 7.73174 7.73174 0 012.66016 1.17285 5.291 5.291 0 011.69726 1.99512 6.38794 6.38794 0 01.59571 2.85254v7.83984a2.17073 2.17073 0 01-.50782 1.48731 5.08024 5.08024 0 01-1.208.998 12.50328 12.50328 0 01-6.4043 1.36426 14.62306 14.62306 0 01-3.34277-.34961 7.92179 7.92179 0 01-2.55469-1.0498 4.80816 4.80816 0 01-1.64551-1.78516 5.2823 5.2823 0 01-.57715-2.51953 4.74181 4.74181 0 011.43457-3.71094 7.74908 7.74908 0 014.44531-1.60937l4.585-.49024V456.605a1.50034 1.50034 0 00-.89258-1.45215 5.9996 5.9996 0 00-2.57227-.4375 11.90337 11.90337 0 00-2.58984.28027 13.80137 13.80137 0 00-2.27539.69922 2.41788 2.41788 0 01-.76953-.96191 3.03214 3.03214 0 01-.31543-1.34766 2.243 2.243 0 01.4375-1.45215 3.37315 3.37315 0 011.34765-.92773 10.53047 10.53047 0 012.39746-.56055A20.87883 20.87883 0 01142.96312 450.27005zm.28027 13.75488a7.81216 7.81216 0 001.3125-.12207 3.19659 3.19659 0 001.06738-.333v-2.7998l-2.52051.21a3.88705 3.88705 0 00-1.60937.41992 1.13144 1.13144 0 00-.62988 1.0498 1.38879 1.38879 0 00.542 1.1377A2.96661 2.96661 0 00143.24339 464.02493zM157.24241 463.46536q-.38524-.87452-.82226-1.96-.438-1.08546-.91016-2.48535-.47167-1.39893-.97949-3.20215-.5083-1.80322-1.06738-4.14746a4.3181 4.3181 0 011.3125-.85743 4.36166 4.36166 0 011.80175-.36816 3.74878 3.74878 0 012.03028.50781 3.12358 3.12358 0 011.19043 1.90723l2.76464 9.625h.13965q.42042-1.18946.82325-2.58984.40136-1.39893.7871-2.8877.38526-1.48681.71778-2.97461.33105-1.48681.57715-2.92285a5.84243 5.84243 0 012.76464-.665 3.65127 3.65127 0 012.03028.52539 2.00744 2.00744 0 01.80469 1.82031 11.57281 11.57281 0 01-.24414 2.1875q-.2461 1.24219-.64747 2.64258-.40283 1.39893-.94531 2.88672-.54345 1.48829-1.13769 2.92285-.59619 1.43554-1.22461 2.71289-.62988 1.27734-1.22559 2.292a24.56842 24.56842 0 01-1.81933 2.79981 10.01536 10.01536 0 01-1.61036 1.69824 4.62267 4.62267 0 01-1.54.83985 5.66474 5.66474 0 01-1.61035.22753 3.29174 3.29174 0 01-2.37988-.875 3.68251 3.68251 0 01-1.085-2.27539q1.12061-.8745 2.24023-1.94238a23.66221 23.66221 0 002.03028-2.1875 3.29568 3.29568 0 01-1.27832-.82226A8.14176 8.14176 0 01157.24241 463.46536zM200.29319 467.66555a9.98256 9.98256 0 01-1.208.21 12.96787 12.96787 0 01-1.627.1045 7.34155 7.34155 0 01-1.418-.12207 2.52469 2.52469 0 01-1.03222-.4375 1.88736 1.88736 0 01-.62989-.875 4.25313 4.25313 0 01-.21-1.47071v-5.46h-6.7207v8.05078a9.92277 9.92277 0 01-1.207.21 12.97146 12.97146 0 01-1.62793.1045 7.33082 7.33082 0 01-1.417-.12207 2.51335 2.51335 0 01-1.03223-.4375 1.89592 1.89592 0 01-.63086-.875 4.27653 4.27653 0 01-.21-1.47071V446.59524q.38526-.07031 1.22559-.19238a11.1104 11.1104 0 011.60937-.123 7.259 7.259 0 011.418.123 2.52466 2.52466 0 011.03223.4375 1.88736 1.88736 0 01.62988.875 4.25079 4.25079 0 01.21 1.46972v5.60059h6.7207v-8.19043c.25586-.04687.665-.11035 1.22461-.19238a11.11317 11.11317 0 011.61035-.123 7.25568 7.25568 0 011.417.123 2.51882 2.51882 0 011.03222.4375 1.89573 1.89573 0 01.63086.875 4.27419 4.27419 0 01.21 1.46972zM221.99241 459.30032a10.53322 10.53322 0 01-.665 3.86719 7.83761 7.83761 0 01-1.87207 2.85254 7.95952 7.95952 0 01-2.88769 1.75 11.16848 11.16848 0 01-3.74512.59472 10.59871 10.59871 0 01-3.74512-.62988 8.2506 8.2506 0 01-2.88769-1.80176 8.04475 8.04475 0 01-1.87207-2.85254 10.20063 10.20063 0 01-.665-3.78027 10.09592 10.09592 0 01.665-3.74512 8.036 8.036 0 011.87207-2.85254 8.25276 8.25276 0 012.88769-1.80273 10.59871 10.59871 0 013.74512-.62988 10.34381 10.34381 0 013.74512.64746 8.48013 8.48013 0 012.88769 1.82031 8.04921 8.04921 0 011.87207 2.85254A9.99589 9.99589 0 01221.99241 459.30032zm-12.25 0a5.53362 5.53362 0 00.82227 3.27246 2.66762 2.66762 0 002.293 1.1377 2.56788 2.56788 0 002.25683-1.15528 5.73263 5.73263 0 00.78809-3.25488 5.54692 5.54692 0 00-.80567-3.23731 2.84327 2.84327 0 00-4.5498 0A5.5472 5.5472 0 00209.74241 459.30032zM233.053 450.27005a10.06016 10.06016 0 012.81738.40234 6.93055 6.93055 0 012.39746 1.208 10.3584 10.3584 0 012.36231-1.15528 10.5863 10.5863 0 015.77539-.10449 6.65171 6.65171 0 012.27441 1.10254 5.34349 5.34349 0 011.59278 1.99414 6.97678 6.97678 0 01.59472 3.02832v11.02442a7.95784 7.95784 0 01-1.10254.21 11.21326 11.21326 0 01-1.55761.10547 8.18459 8.18459 0 01-1.38184-.10547 2.34766 2.34766 0 01-1.0332-.41993 2.01891 2.01891 0 01-.64746-.85742 3.71581 3.71581 0 01-.22754-1.417v-8.36523a1.82762 1.82762 0 00-.59473-1.52246 2.5169 2.5169 0 00-1.61035-.47266 2.80483 2.80483 0 00-1.04981.22754 3.04351 3.04351 0 00-.83984.47265 1.07488 1.07488 0 01.03516.26172v11.88282a9.58854 9.58854 0 01-1.1377.21 10.96528 10.96528 0 01-1.52246.10547 8.19659 8.19659 0 01-1.38281-.10547 2.34844 2.34844 0 01-1.03223-.41993 2.0113 2.0113 0 01-.64746-.85742 3.69705 3.69705 0 01-.22754-1.417v-8.36523A1.75669 1.75669 0 00234.26 455.398a2.568 2.568 0 00-1.55762-.47266 2.78059 2.78059 0 00-1.085.19238 8.3349 8.3349 0 00-.76953.36719v12.28516a7.98822 7.98822 0 01-1.10254.21 11.22367 11.22367 0 01-1.55762.10547 8.19667 8.19667 0 01-1.38281-.10547 2.34845 2.34845 0 01-1.03222-.41993 2.01124 2.01124 0 01-.64747-.85742 3.69707 3.69707 0 01-.22753-1.417V454.71536a2.52634 2.52634 0 01.40234-1.50488 4.52786 4.52786 0 011.10254-1.04981 10.04777 10.04777 0 012.958-1.36523A12.87131 12.87131 0 01233.053 450.27005zM263.50218 468.36477a12.2837 12.2837 0 01-3.833-.57715 8.69331 8.69331 0 01-3.08008-1.73242 8.00913 8.00913 0 01-2.06445-2.90527 10.29318 10.29318 0 01-.75293-4.09473 9.57417 9.57417 0 01.75293-3.97265 7.69054 7.69054 0 014.77734-4.30469 10.44757 10.44757 0 013.21973-.50781 9.73507 9.73507 0 013.37793.56054 8.12684 8.12684 0 012.625 1.54 6.85731 6.85731 0 011.71484 2.34473 7.18686 7.18686 0 01.61231 2.97461 2.38769 2.38769 0 01-.665 1.82031 3.32193 3.32193 0 01-1.85449.80469l-8.64551 1.29492a2.90364 2.90364 0 001.57519 1.73242 6.16664 6.16664 0 002.73047.57813 9.76126 9.76126 0 002.71192-.36817 8.58268 8.58268 0 002.083-.85742 2.93624 2.93624 0 01.94434.98047 2.5671 2.5671 0 01-1.085 3.6748 7.77113 7.77113 0 01-2.51953.80469A17.66853 17.66853 0 01263.50218 468.36477zm-.98047-13.75488a3.47058 3.47058 0 00-1.45215.28027 2.93682 2.93682 0 00-.99805.71778 2.97294 2.97294 0 00-.57714.97949 4.06142 4.06142 0 00-.22754 1.10254l5.98535-.97949a2.64912 2.64912 0 00-.77051-1.4004A2.578 2.578 0 00262.52171 454.60989zM287.7219 450.27005a14.40917 14.40917 0 013.44727.38476 7.73182 7.73182 0 012.66016 1.17285 5.291 5.291 0 011.69726 1.99512 6.38794 6.38794 0 01.5957 2.85254v7.83984a2.17072 2.17072 0 01-.50781 1.48731 5.08009 5.08009 0 01-1.208.998 12.50322 12.50322 0 01-6.40429 1.36426 14.62321 14.62321 0 01-3.34278-.34961 7.92173 7.92173 0 01-2.55468-1.0498 4.80807 4.80807 0 01-1.64551-1.78516 5.2823 5.2823 0 01-.57715-2.51953 4.74181 4.74181 0 011.43457-3.71094 7.74908 7.74908 0 014.44531-1.60937l4.585-.49024V456.605a1.50034 1.50034 0 00-.89257-1.45215 5.9996 5.9996 0 00-2.57227-.4375 11.90337 11.90337 0 00-2.58984.28027 13.80137 13.80137 0 00-2.27539.69922 2.418 2.418 0 01-.76954-.96191 3.03226 3.03226 0 01-.31542-1.34766 2.243 2.243 0 01.4375-1.45215 3.37315 3.37315 0 011.34765-.92773 10.53047 10.53047 0 012.39746-.56055A20.8788 20.8788 0 01287.7219 450.27005zm.28028 13.75488a7.81216 7.81216 0 001.3125-.12207 3.19659 3.19659 0 001.06738-.333v-2.7998l-2.52051.21a3.88705 3.88705 0 00-1.60937.41992 1.13145 1.13145 0 00-.62989 1.0498 1.3888 1.3888 0 00.542 1.1377A2.96661 2.96661 0 00288.00218 464.02493zM310.54222 457.02493a1.95079 1.95079 0 00-.61328-1.5918 2.52209 2.52209 0 00-1.66211-.50781 5.568 5.568 0 00-1.38282.1748 3.48688 3.48688 0 00-1.17187.52539v12.14454a7.98822 7.98822 0 01-1.10254.21 11.22367 11.22367 0 01-1.55762.10547 8.19659 8.19659 0 01-1.38281-.10547 2.34854 2.34854 0 01-1.03223-.41993 2.0113 2.0113 0 01-.64746-.85742 3.69705 3.69705 0 01-.22754-1.417v-10.5a2.69243 2.69243 0 01.40235-1.54 4.2284 4.2284 0 011.10254-1.085 9.99343 9.99343 0 012.99218-1.36523 14.29063 14.29063 0 014.00782-.52539 9.4457 9.4457 0 016.08984 1.73242 5.8567 5.8567 0 012.13477 4.8125v10.95508a7.95815 7.95815 0 01-1.10254.21 11.20965 11.20965 0 01-1.55664.10547 8.19671 8.19671 0 01-1.38282-.10547 2.34362 2.34362 0 01-1.03222-.41993 2.01114 2.01114 0 01-.64746-.85742 3.69686 3.69686 0 01-.22754-1.417zM319.43089 459.30032a10.4725 10.4725 0 01.70019-4.00781 7.66714 7.66714 0 011.94239-2.81739 7.9803 7.9803 0 012.90527-1.66211 11.50418 11.50418 0 013.58789-.543 7.48628 7.48628 0 011.36426.123 5.48977 5.48977 0 011.085.29688v-5.66992a9.51 9.51 0 011.12012-.22754 10.07519 10.07519 0 011.57519-.12207 8.3223 8.3223 0 011.38281.10449 2.365 2.365 0 011.03223.41992 1.89581 1.89581 0 01.62988.85742 4.00733 4.00733 0 01.21 1.418v16.58984a2.98779 2.98779 0 01-1.54 2.625 10.6536 10.6536 0 01-2.625 1.17286 13.66124 13.66124 0 01-7.78711-.123 8.27984 8.27984 0 01-3.04493-1.81934 7.81585 7.81585 0 01-1.89062-2.85254A10.30641 10.30641 0 01319.43089 459.30032zm9.94043-4.375a3.78761 3.78761 0 00-2.90528 1.085 4.66907 4.66907 0 00-1.01464 3.29 4.91177 4.91177 0 00.94433 3.27246 3.39847 3.39847 0 002.73047 1.10254 3.19947 3.19947 0 001.1377-.19238 2.5888 2.5888 0 00.78711-.4375v-7.7002A3.20539 3.20539 0 00329.37132 454.92532zM354.15159 459.37063q-1.541-.52587-2.7998-1.06836a8.55487 8.55487 0 01-2.16992-1.3125 5.41931 5.41931 0 01-1.418-1.83691 6.03521 6.03521 0 01-.50782-2.60742 5.72745 5.72745 0 012.293-4.75977 10.22913 10.22913 0 016.42285-1.78516 17.45526 17.45526 0 012.79981.21 8.3456 8.3456 0 012.22266.64746 3.87922 3.87922 0 011.45214 1.12011 2.539 2.539 0 01.52539 1.5918 2.79652 2.79652 0 01-.42089 1.55762 4.3292 4.3292 0 01-1.01465 1.10254 7.94963 7.94963 0 00-2.06446-.85743 10.3616 10.3616 0 00-2.83593-.36718 4.66934 4.66934 0 00-2.30957.4375 1.27559 1.27559 0 00-.73536 1.10254 1.02038 1.02038 0 00.45508.85742 4.72013 4.72013 0 001.36524.6123l1.85547.59473a13.43 13.43 0 015.05664 2.67773 5.72218 5.72218 0 011.76757 4.42774 5.82387 5.82387 0 01-2.34472 4.8125q-2.34522 1.83692-6.89453 1.83691a16.07282 16.07282 0 01-2.99317-.26172 9.48324 9.48324 0 01-2.415-.7705 4.44921 4.44921 0 01-1.60937-1.25977 2.76416 2.76416 0 01-.57813-1.73242 2.62187 2.62187 0 01.59571-1.73242 4.5176 4.5176 0 011.29492-1.10254 9.47693 9.47693 0 002.39746 1.33008 8.36089 8.36089 0 003.09766.55957 4.16318 4.16318 0 002.415-.52442 1.51647 1.51647 0 00.69921-1.22558 1.19832 1.19832 0 00-.55957-1.06739 7.25944 7.25944 0 00-1.57519-.71777zM372.91136 461.96048a1.44069 1.44069 0 00.57715 1.29492 2.91842 2.91842 0 001.62793.38476 7.006 7.006 0 001.085-.08789 5.98717 5.98717 0 00.97949-.22754 4.34066 4.34066 0 01.543.8584 2.60445 2.60445 0 01.22754 1.13672 2.704 2.704 0 01-.998 2.16992 5.55988 5.55988 0 01-3.51758.84082 7.16979 7.16979 0 01-4.74219-1.40039q-1.66258-1.39893-1.66211-4.5498V447.39993q.38379-.104 1.10254-.22754a9.09814 9.09814 0 011.52246-.12207 4.48215 4.48215 0 012.39747.542 2.53662 2.53662 0 01.85742 2.293v2.24023h4.585a6.0832 6.0832 0 01.40234.96192 4.03906 4.03906 0 01.19238 1.27734 2.42825 2.42825 0 01-.542 1.76758 1.96353 1.96353 0 01-1.45312.543h-3.18457zM387.96116 450.27005a14.40917 14.40917 0 013.44727.38476 7.73177 7.73177 0 012.66015 1.17285 5.291 5.291 0 011.69727 1.99512 6.38807 6.38807 0 01.5957 2.85254v7.83984a2.17072 2.17072 0 01-.50781 1.48731 5.08029 5.08029 0 01-1.208.998 12.50322 12.50322 0 01-6.40429 1.36426 14.62315 14.62315 0 01-3.34278-.34961 7.92179 7.92179 0 01-2.55469-1.0498 4.808 4.808 0 01-1.6455-1.78516 5.2823 5.2823 0 01-.57715-2.51953 4.74181 4.74181 0 011.43457-3.71094 7.74908 7.74908 0 014.44531-1.60937l4.585-.49024V456.605a1.50033 1.50033 0 00-.89258-1.45215 5.99952 5.99952 0 00-2.57226-.4375 11.90346 11.90346 0 00-2.58985.28027 13.80167 13.80167 0 00-2.27539.69922 2.41788 2.41788 0 01-.76953-.96191 3.03228 3.03228 0 01-.31543-1.34766 2.24309 2.24309 0 01.4375-1.45215 3.37327 3.37327 0 011.34766-.92773 10.53047 10.53047 0 012.39746-.56055A20.8788 20.8788 0 01387.96116 450.27005zm.28028 13.75488a7.81216 7.81216 0 001.3125-.12207 3.19667 3.19667 0 001.06738-.333v-2.7998l-2.52051.21a3.88705 3.88705 0 00-1.60937.41992 1.13143 1.13143 0 00-.62989 1.0498 1.38882 1.38882 0 00.542 1.1377A2.96664 2.96664 0 00388.24144 464.02493zM402.24046 463.46536q-.38526-.87452-.82227-1.96-.438-1.08546-.91015-2.48535-.47169-1.39893-.9795-3.20215-.50829-1.80322-1.06738-4.14746a4.3181 4.3181 0 011.3125-.85743 4.36171 4.36171 0 011.80176-.36816 3.74874 3.74874 0 012.03027.50781 3.12349 3.12349 0 011.19043 1.90723l2.76465 9.625h.13965q.4204-1.18946.82324-2.58984.40137-1.39893.78711-2.8877.38526-1.48681.71777-2.97461.33106-1.48681.57715-2.92285a5.84247 5.84247 0 012.76465-.665 3.65127 3.65127 0 012.03028.52539 2.00743 2.00743 0 01.80468 1.82031 11.572 11.572 0 01-.24414 2.1875q-.24609 1.24219-.64746 2.64258-.40283 1.39893-.94531 2.88672-.54346 1.48829-1.1377 2.92285-.59619 1.43554-1.22461 2.71289-.62988 1.27734-1.22558 2.292a24.56834 24.56834 0 01-1.81934 2.79981 10.015 10.015 0 01-1.61035 1.69824 4.62267 4.62267 0 01-1.54.83985 5.66474 5.66474 0 01-1.61035.22753 3.29173 3.29173 0 01-2.37988-.875 3.68251 3.68251 0 01-1.085-2.27539q1.1206-.8745 2.24023-1.94238a23.66345 23.66345 0 002.03027-2.1875 3.29575 3.29575 0 01-1.27832-.82226A8.14178 8.14178 0 01402.24046 463.46536zM432.34007 459.37063q-1.53956-.52587-2.79981-1.06836a8.57228 8.57228 0 01-2.16992-1.3125 5.41663 5.41663 0 01-1.417-1.83691 6.03521 6.03521 0 01-.50781-2.60742 5.7266 5.7266 0 012.292-4.75977 10.22911 10.22911 0 016.42285-1.78516 17.44658 17.44658 0 012.79981.21 8.3237 8.3237 0 012.22265.64746 3.87137 3.87137 0 011.45215 1.12011 2.53319 2.53319 0 01.52539 1.5918 2.79611 2.79611 0 01-.41992 1.55762 4.34672 4.34672 0 01-1.01465 1.10254 7.94335 7.94335 0 00-2.06543-.85743 10.35444 10.35444 0 00-2.835-.36718 4.66685 4.66685 0 00-2.30957.4375 1.2756 1.2756 0 00-.73535 1.10254 1.018 1.018 0 00.45508.85742 4.70758 4.70758 0 001.36523.6123l1.85449.59473a13.43488 13.43488 0 015.05762 2.67773 5.72558 5.72558 0 011.76758 4.42774 5.82647 5.82647 0 01-2.34473 4.8125q-2.34522 1.83692-6.89551 1.83691a16.06187 16.06187 0 01-2.99218-.26172 9.47049 9.47049 0 01-2.415-.7705 4.453 4.453 0 01-1.61035-1.25977 2.76912 2.76912 0 01-.57715-1.73242 2.6263 2.6263 0 01.59472-1.73242 4.53067 4.53067 0 011.29493-1.10254 9.511 9.511 0 002.39746 1.33008 8.36453 8.36453 0 003.09765.55957 4.161 4.161 0 002.415-.52442 1.51516 1.51516 0 00.7002-1.22558 1.19913 1.19913 0 00-.56055-1.06739 7.24889 7.24889 0 00-1.57422-.71777zM452.50022 450.27005a14.40917 14.40917 0 013.44727.38476 7.73182 7.73182 0 012.66016 1.17285 5.291 5.291 0 011.69726 1.99512 6.38794 6.38794 0 01.59571 2.85254v7.83984a2.17073 2.17073 0 01-.50782 1.48731 5.08009 5.08009 0 01-1.208.998 12.50322 12.50322 0 01-6.40429 1.36426 14.62321 14.62321 0 01-3.34278-.34961 7.92173 7.92173 0 01-2.55468-1.0498 4.80807 4.80807 0 01-1.64551-1.78516 5.2823 5.2823 0 01-.57715-2.51953 4.74181 4.74181 0 011.43457-3.71094 7.74908 7.74908 0 014.44531-1.60937l4.585-.49024V456.605a1.50034 1.50034 0 00-.89257-1.45215 5.9996 5.9996 0 00-2.57227-.4375 11.90337 11.90337 0 00-2.58984.28027 13.80137 13.80137 0 00-2.27539.69922 2.41788 2.41788 0 01-.76953-.96191 3.03214 3.03214 0 01-.31543-1.34766 2.243 2.243 0 01.4375-1.45215 3.37315 3.37315 0 011.34765-.92773 10.53047 10.53047 0 012.39746-.56055A20.8788 20.8788 0 01452.50022 450.27005zm.28028 13.75488a7.81216 7.81216 0 001.3125-.12207 3.19659 3.19659 0 001.06738-.333v-2.7998l-2.52051.21a3.88705 3.88705 0 00-1.60937.41992 1.13144 1.13144 0 00-.62988 1.0498 1.38879 1.38879 0 00.542 1.1377A2.96661 2.96661 0 00452.7805 464.02493zM464.6096 450.79544a7.02887 7.02887 0 01.6123-3.0625 5.817 5.817 0 011.66309-2.10059 6.8834 6.8834 0 012.4668-1.207 11.50508 11.50508 0 013.02832-.38477 8.14317 8.14317 0 013.81445.68262 2.44285 2.44285 0 011.22559 2.32715 2.79484 2.79484 0 01-.94532 2.09961q-.665-.17431-1.38281-.29688a9.93337 9.93337 0 00-1.66211-.123 4.54523 4.54523 0 00-2.34472.50781 1.8956 1.8956 0 00-.84082 1.76758v1.12011h5.74023a5.99334 5.99334 0 01.40234.96192 4.03906 4.03906 0 01.19239 1.27734 2.42825 2.42825 0 01-.542 1.76758 1.96121 1.96121 0 01-1.45214.543h-4.0254v11.09473a7.988 7.988 0 01-1.10253.21 11.22388 11.22388 0 01-1.55762.10547 8.19659 8.19659 0 01-1.38281-.10547 2.34844 2.34844 0 01-1.03223-.41993 2.0113 2.0113 0 01-.64746-.85742 3.69686 3.69686 0 01-.22754-1.417zM487.81468 468.36477a12.273 12.273 0 01-3.832-.57715 8.68481 8.68481 0 01-3.08008-1.73242 8.02283 8.02283 0 01-2.06543-2.90527 10.29353 10.29353 0 01-.75195-4.09473 9.57457 9.57457 0 01.75195-3.97265 7.68891 7.68891 0 014.77832-4.30469 10.44291 10.44291 0 013.21973-.50781 9.72554 9.72554 0 013.37695.56054 8.10627 8.10627 0 012.625 1.54 6.86 6.86 0 011.71582 2.34473 7.20246 7.20246 0 01.6123 2.97461 2.39131 2.39131 0 01-.665 1.82031 3.325 3.325 0 01-1.85546.80469l-8.64454 1.29492a2.90071 2.90071 0 001.5752 1.73242 6.16231 6.16231 0 002.72949.57813 9.76821 9.76821 0 002.71289-.36817 8.57384 8.57384 0 002.082-.85742 2.93877 2.93877 0 01.94532.98047 2.56934 2.56934 0 01-1.085 3.6748 7.76919 7.76919 0 01-2.52051.80469A17.66853 17.66853 0 01487.81468 468.36477zm-.97949-13.75488a3.47213 3.47213 0 00-1.45313.28027 2.9326 2.9326 0 00-.99707.71778 2.973 2.973 0 00-.57715.97949 3.9896 3.9896 0 00-.22754 1.10254l5.98438-.97949a2.64694 2.64694 0 00-.76953-1.4004A2.57942 2.57942 0 00486.83519 454.60989z" class="color26b5bf svgShape">
					</path>
					<line x1="1" x2="602.48" y1="429.019" y2="429.019" fill="none" stroke="#139da0" stroke-linecap="round" stroke-linejoin="round" stroke-width="2" class="colorStroke139da0 svgStroke">
					</line>
				</g>
			</g>
		</svg>
	</g>
</svg>
